<svg width="133" height="132" viewBox="0 0 133 132" fill="none" xmlns="http://www.w3.org/2000/svg">
<path d="M46.7319 120.714V117.831H15.3151L14.4509 116.966V85.5461H11.5689V98.5171C11.5689 100.409 1.86241 101.245 2.39899 97.3312C3.33089 77.3728 0.976624 56.0255 2.31955 36.2309C2.42647 34.6487 2.16553 32.6858 4.02345 32.1826C5.45856 31.7941 11.5679 31.4508 11.5679 33.3715V45.7667H14.4499V14.347L15.3141 13.4818H47.3077V10.5988H33.7608C31.9873 8.54566 33.2713 4.9603 32.8721 2.3343C33.0879 1.40829 35.8297 1.38965 36.6183 1.3465C56.7915 0.250778 77.9996 2.17148 98.2806 1.43381L100.366 2.33333C99.9669 4.95834 101.252 8.54468 99.4774 10.5978H86.5073V13.4808H117.925L118.789 14.346V46.3425H121.671V33.3715C121.671 31.4518 127.781 31.7941 129.216 32.1826C131.074 32.6858 130.813 34.6487 130.92 36.2309C132.264 56.0255 129.909 77.3728 130.84 97.3312C131.377 101.245 121.67 100.409 121.67 98.5171V86.1219H118.788V116.967L117.924 117.832H86.5073V120.715H100.343C100.951 122.567 101.517 127.916 100.206 129.226L98.2924 129.885C78.4371 128.64 56.1892 131.725 36.6164 129.966C35.4088 129.857 33.443 129.756 32.9908 128.403C32.569 127.141 32.5974 120.715 34.3376 120.715H46.7319V120.714ZM36.9322 125.902H96.8838V124.173H83.0485L82.4688 115.527C72.1011 118.497 61.4275 118.731 51.0618 115.517L50.1897 124.173H36.9313V125.902H36.9322ZM86.5073 114.372H114.466L115.33 113.507V85.5461L109.694 95.1858C106.015 100.581 101.498 105.01 96.1471 108.734L86.5083 114.371L86.5073 114.372ZM35.7786 102.847C51.4061 116.349 73.8678 117.345 91.6906 107.447C91.825 106.368 90.5488 107.044 89.9436 107.139C85.4057 107.858 82.3314 108.845 77.9054 106.319C76.6969 109.926 69.6478 113.922 66.084 113.755C64.1525 113.665 58.6278 110.802 57.1397 109.438C55.5555 107.985 54.1724 104.226 53.8104 103.987C50.898 102.065 50.1907 104.115 47.7795 104.752C43.5379 105.872 39.7103 104.203 35.7777 102.846L35.7786 102.847ZM17.9087 85.5461V113.507L18.773 114.372H46.7309L37.0921 108.735C31.6979 105.056 27.2689 100.539 23.5453 95.1868L17.9087 85.547V85.5461ZM59.4185 106.867C64.6773 110.206 69.5203 111.079 73.8256 105.731C69.0357 106.162 64.4949 106.295 59.7039 105.723L59.4185 106.868V106.867ZM98.0423 93.6222C98.1531 95.744 97.7696 97.8167 96.9985 99.7855C96.0009 102.333 93.7546 103.862 92.854 106.3C93.5054 106.995 102.918 97.8589 103.816 96.8024C105.7 94.5865 108.679 91.0815 108.704 88.431C105.777 91.1767 102.282 93.8704 98.0423 93.6212V93.6222ZM81.3191 103.989C88.0298 104.845 92.8913 103.137 93.9949 95.9235L81.3191 103.989ZM58.2649 94.196C57.0161 95.588 64.5469 102.041 66.6186 102.05C69.3535 101.045 73.705 98.0168 74.4113 95.0652C74.6359 94.1244 74.7301 94.2588 73.8188 94.4648C68.4599 95.6753 63.5777 95.7979 58.2649 94.196ZM21.3735 82.0872C23.3069 89.7376 28.5491 96.7338 34.6202 101.689C34.0541 99.5746 32.2796 97.6715 31.8784 95.4997C31.485 93.3671 31.901 91.1679 31.7175 89.0294C27.0541 88.947 24.3094 85.1115 21.3725 82.0872H21.3735ZM74.9783 101.107C75.9435 101.832 85.082 98.2542 85.9305 96.5062L78.7784 95.436L74.9783 101.107ZM47.3087 96.5062C48.064 98.1993 57.0073 101.642 57.6852 101.107C56.6993 98.883 54.5206 97.3233 54.2165 94.7679L47.3087 96.5062ZM37.664 99.2263C39.3483 100.914 44.411 101.344 46.729 101.106L39.2296 95.6429L35.7718 91.315C34.7016 91.2032 35.2156 93.2004 35.3402 93.7664C35.5628 94.7728 37.0833 98.6437 37.664 99.2263ZM125.13 95.9235H126.86V35.9661H125.13V49.8023L116.483 50.384C119.946 60.5241 119.36 71.5872 116.474 81.79L125.13 82.6631V95.9225V95.9235ZM6.37968 95.9235H8.10908V82.0872L16.7542 81.5065C13.6956 71.3155 13.4768 60.2514 16.7649 50.0986L8.11006 49.2255V35.9661H6.38065V95.9235H6.37968ZM81.322 92.4617C85.1742 92.4558 89.1314 92.8698 92.7216 91.1845C93.8772 88.6233 94.8473 83.3124 93.1454 80.9248C92.4107 79.8938 92.2871 80.7169 91.7789 81.3054C89.4364 84.0197 87.9611 86.424 85.0536 88.9921C84.5395 89.4463 80.3725 91.6309 81.322 92.4608V92.4617ZM41.0973 91.1806C42.6374 92.6756 49.7444 92.8217 51.9182 91.881C47.654 88.5389 43.5222 85.0634 40.6785 80.3686C39.1708 80.3039 39.5837 89.7121 41.0964 91.1796L41.0973 91.1806ZM67.0346 91.7309C101.015 91.1414 100.401 39.5446 66.6196 39.5446C32.8378 39.5446 32.619 92.3273 67.0346 91.7309ZM99.7687 89.5787C106.769 87.7993 107.96 82.8759 106.1 76.3261L99.7687 89.5787ZM114.184 61.3353C114.226 65.7545 111.897 70.0294 108.444 72.6515C110.639 77.1119 111.277 81.1926 110.149 86.1229C111.519 84.983 112.326 82.1696 112.859 80.4804C114.28 75.9887 115.898 67.4652 115.184 62.9146C115.104 62.4026 114.937 61.1803 114.184 61.3363V61.3353ZM95.7312 77.4827C96.7033 80.1175 97.7235 82.0225 97.746 84.9673C100.274 81.7596 101.191 77.7338 102.649 74.0219L95.7312 77.4827ZM30.5904 74.0219C32.1452 77.6269 32.8034 82.1245 35.7728 84.9702C35.4883 82.3138 36.5183 79.8713 37.511 77.4856L30.5904 74.0229V74.0219ZM26.5499 71.134C21.9385 76.9235 24.691 81.9117 30.5855 84.9702L26.5499 71.134ZM19.0672 54.9945C17.8391 62.3369 17.6223 69.1299 19.2183 76.4537L20.7849 80.9317C20.2964 75.6601 21.2685 71.2752 24.1947 66.8904C21.9326 64.8952 21.1194 62.586 20.3591 59.7472C19.9982 58.4003 20.6417 55.6272 19.0672 54.9935V54.9945ZM95.1544 73.4343C102.989 71.0035 105.842 64.0339 98.0079 58.7672C97.5783 58.4788 95.0808 56.9407 95.4241 58.4582C96.5532 63.4453 96.9338 68.5335 95.1544 73.4343ZM38.0829 57.3007C35.1832 57.3958 30.2638 63.2256 30.2648 65.6564C30.2648 68.0607 34.8929 73.036 37.2177 73.4451C38.5057 73.6717 37.9613 73.4991 37.8151 72.8556C36.6007 67.4917 36.4849 62.6184 38.0829 57.3007ZM105.537 53.8389L107.546 68.249C112.506 63.3296 110.763 57.5969 105.537 53.8389ZM29.4319 48.6497C23.2833 51.9408 22.4427 56.9652 25.4091 63.0608C27.1973 62.3074 26.3684 59.8963 26.7 58.3071C27.3867 55.0102 28.6589 51.9074 29.4319 48.6497ZM106.169 50.3134L111.294 54.1283L114.748 60.7546C114.283 52.3008 110.758 44.3532 106.111 37.4022C105.007 36.5948 105.696 38.4616 105.791 38.8765C106.756 43.0573 107.027 46.0198 106.169 50.3134ZM95.737 53.8154L102.648 57.2918C101.191 53.5799 100.273 49.5541 97.745 46.3465L95.7361 53.8154H95.737ZM35.7728 46.3435C34.0797 47.1028 30.6405 56.0303 31.1721 56.7209L37.4296 52.9904C36.5467 50.8725 35.5825 48.6958 35.7718 46.3435H35.7728ZM32.3139 31.9314C26.3076 36.9715 21.7786 44.9849 20.2199 52.6824L25.1285 46.935L30.0175 44.6062C28.3136 40.1371 30.8916 36.0161 32.3139 31.9314ZM92.8413 50.9549C94.0743 47.1165 93.3906 43.0828 91.9849 39.4249C90.7058 37.9152 83.587 37.9162 81.8861 39.1296C80.8561 39.8643 81.6771 39.988 82.2667 40.4961C83.2251 41.323 84.5415 41.8802 85.6559 42.8719C88.3966 45.3115 90.5106 48.172 92.8413 50.9549ZM41.0973 39.5583C39.3571 43.0583 39.4189 47.2548 40.3969 50.9549C43.742 46.6908 47.2155 42.5502 51.9162 39.7113C48.5143 37.5542 44.6621 38.2095 41.0964 39.5583H41.0973ZM93.425 34.8193C95.3849 37.1677 97.5547 39.3494 99.4254 41.7831C99.8551 42.3412 102.385 47.3362 103.221 46.3406C103.627 39.1237 100.237 36.0033 93.424 34.8184L93.425 34.8193ZM115.33 45.7677V17.8068L114.466 16.9416H86.5083L96.1471 22.5791C101.498 26.3028 106.015 30.7317 109.694 36.1269L115.33 45.7667V45.7677ZM46.7319 16.9416H18.7739L17.9097 17.8068V45.7677L23.5462 36.1279C27.2248 30.7327 31.7421 26.3037 37.0931 22.5801L46.7319 16.9426V16.9416ZM44.4257 31.3605C37.564 31.2948 33.0242 34.4691 33.4783 41.7321L44.4257 31.3605ZM58.8427 37.1197C63.7435 35.3383 68.8307 35.7228 73.8178 36.8489C74.7291 37.0549 74.6349 37.1893 74.4103 36.2486C73.705 33.2989 69.3535 30.2668 66.6196 29.2652C63.2785 30.6611 59.2733 33.2596 58.8427 37.1187V37.1197ZM78.4449 36.5429C80.5451 35.4364 83.7803 35.2196 85.3537 33.6677L74.9792 30.2079L78.4459 36.5438L78.4449 36.5429ZM47.3077 34.8076L54.7943 36.5429L58.261 30.2069C57.2996 29.481 48.1562 33.0595 47.3087 34.8076H47.3077ZM91.1737 31.2977C96.3766 30.5807 99.9836 33.3499 104.377 35.3844C99.0683 28.6639 92.2262 23.971 84.4787 20.4092C82.7169 20.3268 84.0805 21.0243 84.5886 21.4559C87.8228 24.2045 90.7087 26.7108 91.1747 31.2987L91.1737 31.2977ZM73.8266 25.0197C74.0042 26.1007 75.0401 25.9683 75.7718 26.2361C79.5799 27.632 83.7293 28.2087 87.0773 30.7769C84.9859 23.972 80.243 22.4496 73.8256 25.0187L73.8266 25.0197ZM34.0492 30.1961C38.2369 28.3932 42.1136 27.115 46.7643 28.2274C50.7077 18.0481 62.0768 15.2985 69.5016 23.8435L73.6991 21.141L83.0446 19.8315C66.3891 14.3754 46.5288 17.5007 34.0492 30.1961ZM51.3473 27.8929L65.1757 24.7274C63.822 23.4472 59.2076 21.8306 57.5449 22.2348C56.7111 22.4378 50.3408 26.9365 51.3463 27.8929H51.3473ZM83.9137 7.14095H96.8838V5.41154H36.3555V7.14095H49.9023C51.7759 8.2298 50.178 15.17 50.7705 15.787C61.1361 12.8196 71.8196 12.5774 82.1813 15.8027C83.3948 15.8635 82.9249 15.7958 83.0524 14.9424C83.2967 13.3052 82.3442 7.62553 83.9137 7.14095Z" fill="#C90000" stroke="#FFD72E" stroke-width="2" stroke-miterlimit="10"/>
</svg>
