<svg width="47" height="44" viewBox="0 0 47 44" fill="none" xmlns="http://www.w3.org/2000/svg">
<path d="M29.3115 35.2144C29.3115 38.4586 27.773 42.6545 23.4373 42.6545C18.1226 42.6545 17.1436 38.4586 17.1436 35.2144" stroke="#98141E" stroke-width="2"/>
<path d="M6.26953 28.1396C8.54574 30.3244 11.309 31.9598 14.3428 32.9121C16.2355 33.5065 18.2047 33.8309 20.1895 33.8779C19.423 34.4816 18.5765 34.9841 17.6689 35.3662V35.3672C17.6277 35.382 17.5927 35.3949 17.5703 35.4053C17.5263 35.4257 17.5251 35.4275 17.5127 35.4326C15.7621 36.1471 13.8825 36.5099 11.9854 36.5H11.9824C8.40568 36.5 5.13395 35.2534 3.02832 33.2422C2.16741 32.4197 2.16792 31.0664 3.03027 30.2451C3.91279 29.4046 5.01152 28.6875 6.26953 28.1396ZM40.8789 28.1445C42.1327 28.6917 43.2282 29.4076 44.1084 30.2461C44.9701 31.0674 44.971 32.4199 44.1104 33.2422C42.0047 35.2536 38.7322 36.5 35.1553 36.5H35.1533C33.2639 36.5098 31.3912 36.15 29.6465 35.4414C29.6337 35.4362 29.632 35.4345 29.5859 35.4131C29.5614 35.4017 29.5236 35.3851 29.4775 35.3691C28.5669 34.9865 27.7161 34.4846 26.9473 33.8789C28.9381 33.8333 30.9131 33.5082 32.8115 32.9121C35.8429 31.9606 38.6037 30.3267 40.8789 28.1445ZM4.30762 11.0938C5.5263 11.1005 6.74403 11.2214 7.94336 11.4561C7.94454 11.4563 7.95052 11.4579 7.97461 11.4648C7.99617 11.471 8.04284 11.4845 8.09473 11.4941L8.09961 11.4951C8.12346 11.4993 8.1478 11.4989 8.17188 11.501C9.81917 11.8463 11.4083 12.4048 12.8984 13.1592C14.0471 13.7407 14.6117 15.0808 14.5713 16.5156C14.4946 19.2418 14.9791 21.9646 16.0059 24.5176C16.3085 25.2702 16.6565 26.0016 17.0459 26.709C17.6845 27.8691 17.6844 29.2682 17.2275 30.2529C17.0015 30.7401 16.6758 31.1014 16.2891 31.2998C15.9108 31.4938 15.4301 31.5553 14.8359 31.3691C11.9569 30.4655 9.34233 28.896 7.21289 26.7939L7.21191 26.793L6.8125 26.3896C4.85052 24.3451 3.3807 21.8925 2.51465 19.2129C1.94966 17.4435 1.65553 15.607 1.63672 13.7637C1.62165 12.2773 2.81594 11.0856 4.30762 11.0938ZM42.8545 11.0938C44.3432 11.0863 45.5356 12.2736 45.5225 13.7559C45.5051 15.6877 45.1817 17.6117 44.5586 19.457C43.6252 22.2212 42.0451 24.7341 39.9434 26.793H39.9424L39.9414 26.7939C37.812 28.896 35.1974 30.4655 32.3184 31.3691C31.7239 31.5554 31.2427 31.4939 30.8643 31.2998C30.4775 31.1013 30.1519 30.74 29.9258 30.2529C29.4687 29.268 29.4678 27.8687 30.1064 26.708C30.4956 26.0007 30.8429 25.269 31.1455 24.5166C32.1723 21.9636 32.658 19.241 32.582 16.5146C32.542 15.0804 33.1067 13.7415 34.2549 13.1602C35.7474 12.4045 37.3391 11.8453 38.9893 11.5C39.0639 11.4932 39.1268 11.4811 39.167 11.4707C39.2395 11.452 39.2408 11.4497 39.2637 11.4453C40.4484 11.2169 41.6512 11.0999 42.8545 11.0938ZM21.7061 3.92285C22.7486 2.88877 24.4081 2.88753 25.4502 3.9209C27.9284 6.37867 29.6762 9.47642 30.4736 12.8789C31.4867 17.2015 30.9005 21.737 28.8174 25.6748C27.9281 27.3434 26.7909 28.8673 25.4482 30.1992C24.4057 31.2334 22.7462 31.2346 21.7041 30.2012C19.2259 27.7434 17.4781 24.6456 16.6807 21.2432C15.6677 16.9209 16.2541 12.3859 18.3369 8.44824C19.2262 6.77948 20.3633 5.25489 21.7061 3.92285ZM8.24121 11.5068C8.23894 11.5068 8.23581 11.5069 8.23242 11.5068C8.22797 11.5067 8.22212 11.5044 8.21484 11.5039C8.22366 11.5042 8.23239 11.5068 8.24121 11.5068ZM10.7773 5.73242C11.446 4.42228 13.0294 3.90804 14.3438 4.57324C15.1141 4.96313 15.8567 5.40488 16.5664 5.89453C17.0982 6.26157 17.2488 7.02748 16.8955 7.69141L16.8945 7.69336C16.6933 8.07381 16.5041 8.46004 16.3281 8.85156C15.5573 10.5664 13.3672 11.4872 11.6152 10.8242C10.2442 10.3054 9.44156 8.98092 9.87891 7.78906C10.1366 7.08673 10.4366 6.4 10.7773 5.73242ZM32.8105 4.57324C34.1249 3.90808 35.7083 4.42234 36.377 5.73242C36.7177 6.40006 37.0186 7.08666 37.2764 7.78906C37.7137 8.98091 36.9101 10.3054 35.5391 10.8242C33.7871 11.4872 31.5972 10.5663 30.8262 8.85156C30.6502 8.4601 30.461 8.07375 30.2598 7.69336V7.69238C29.9066 7.02723 30.0566 6.26126 30.5879 5.89453C31.2976 5.40488 32.0402 4.96313 32.8105 4.57324Z" fill="#98141E" stroke="#98141E"/>
<path d="M23.437 35.8813C24.2423 35.8813 24.895 36.5341 24.895 37.3394C24.895 38.1446 24.2423 38.7974 23.437 38.7974C22.6318 38.7973 21.979 38.1446 21.979 37.3394C21.979 36.5341 22.6318 35.8814 23.437 35.8813Z" fill="#98141E" stroke="#98141E"/>
</svg>
