<svg width="128" height="128" viewBox="0 0 128 128" fill="none" xmlns="http://www.w3.org/2000/svg">
<path d="M44.8771 116.716V113.941H14.6406L13.8089 113.109V82.8695H11.0351V95.3532C11.0351 97.1744 1.69334 97.9788 2.20976 94.2118C3.10665 75.0033 0.840836 54.458 2.1333 35.4072C2.23621 33.8843 1.98507 31.9952 3.77318 31.5109C5.15439 31.137 11.0342 30.8066 11.0342 32.6551V44.5847H13.8079V14.3454L14.6397 13.5127H45.4313V10.738H32.3933C30.6864 8.76203 31.9222 5.31138 31.538 2.78404C31.7457 1.89282 34.3844 1.87488 35.1435 1.83334C54.5587 0.778793 74.97 2.62733 94.4891 1.91737L96.4963 2.7831C96.112 5.30949 97.3488 8.76109 95.6409 10.7371H83.1581V13.5118H113.396L114.227 14.3445V45.1389H117.001V32.6551C117.001 30.8075 122.881 31.137 124.262 31.5109C126.05 31.9952 125.799 33.8843 125.902 35.4072C127.195 54.458 124.929 75.0033 125.825 94.2118C126.342 97.9788 117 97.1744 117 95.3532V83.4237H114.226V113.11L113.395 113.942H83.1581V116.717H96.4736C97.0589 118.5 97.6037 123.648 96.3424 124.908L94.5005 125.542C75.3911 124.344 53.9791 127.314 35.1416 125.621C33.9794 125.516 32.0875 125.419 31.6522 124.116C31.2463 122.902 31.2737 116.717 32.9485 116.717H44.8771V116.716ZM35.4456 121.709H93.1447V120.045H79.8293L79.2713 111.724C69.2932 114.583 59.0205 114.807 49.0443 111.714L48.205 120.045H35.4446V121.709H35.4456ZM83.1581 110.613H110.067L110.898 109.78V82.8695L105.474 92.1471C101.933 97.3396 97.5858 101.602 92.4357 105.186L83.1591 110.612L83.1581 110.613ZM34.3353 99.5205C49.3757 112.515 70.9935 113.474 88.1467 103.947C88.2761 102.909 87.0478 103.559 86.4653 103.651C82.0979 104.343 79.1391 105.293 74.8794 102.862C73.7163 106.333 66.932 110.179 63.5021 110.019C61.6432 109.932 56.3261 107.176 54.8939 105.864C53.3692 104.466 52.038 100.848 51.6897 100.618C48.8866 98.768 48.2059 100.741 45.8854 101.354C41.8031 102.432 38.1193 100.825 34.3344 99.5195L34.3353 99.5205ZM17.1368 82.8695V109.78L17.9686 110.613H44.8761L35.5995 105.187C30.4079 101.647 26.1453 97.299 22.5616 92.1481L17.1368 82.8705V82.8695ZM57.087 103.389C62.1483 106.603 66.8093 107.443 70.9529 102.296C66.3429 102.711 61.9727 102.839 57.3617 102.289L57.087 103.39V103.389ZM94.2597 90.6422C94.3664 92.6843 93.9973 94.6792 93.2552 96.574C92.2951 99.0258 90.1331 100.498 89.2664 102.844C89.8933 103.513 98.9519 94.7198 99.8166 93.703C101.629 91.5703 104.497 88.197 104.521 85.6461C101.704 88.2886 98.3401 90.8811 94.2597 90.6413V90.6422ZM78.1648 100.619C84.6234 101.444 89.3023 99.7999 90.3644 92.8571L78.1648 100.619ZM55.9768 91.1945C54.7749 92.5342 62.0227 98.7444 64.0167 98.7529C66.6488 97.7862 70.8368 94.8718 71.5165 92.031C71.7327 91.1256 71.8234 91.2549 70.9463 91.4532C65.7887 92.6182 61.09 92.7362 55.9768 91.1945ZM20.4713 79.5406C22.3322 86.9036 27.3774 93.6369 33.2204 98.4055C32.6756 96.371 30.9678 94.5394 30.5816 92.4492C30.203 90.3968 30.6033 88.2801 30.4268 86.222C25.9386 86.1427 23.297 82.4513 20.4704 79.5406H20.4713ZM72.0622 97.8456C72.9912 98.5433 81.7864 95.1002 82.603 93.4179L75.7196 92.3878L72.0622 97.8456ZM45.4322 93.4179C46.1592 95.0474 54.7664 98.3611 55.4188 97.8456C54.47 95.7054 52.3732 94.2043 52.0805 91.7449L45.4322 93.4179ZM36.1499 96.0358C37.7709 97.6597 42.6434 98.0741 44.8742 97.8447L37.6567 92.5871L34.3287 88.4217C33.2987 88.3141 33.7934 90.2363 33.9133 90.781C34.1276 91.7496 35.591 95.475 36.1499 96.0358ZM120.33 92.8571H121.994V35.1523H120.33V48.4687L112.008 49.0285C115.34 58.7876 114.777 69.4351 111.999 79.2546L120.33 80.0948V92.8561V92.8571ZM6.04089 92.8571H7.70532V79.5406L16.0256 78.9817C13.0819 69.1736 12.8714 58.5252 16.036 48.7538L7.70627 47.9136V35.1523H6.04182V92.8571H6.04089ZM78.1677 89.5254C81.8751 89.5197 85.6836 89.9181 89.139 88.2962C90.2511 85.8311 91.1848 80.7198 89.5468 78.4219C88.8397 77.4296 88.7207 78.2217 88.2317 78.7882C85.9772 81.4005 84.5573 83.7145 81.759 86.1861C81.2643 86.6232 77.2538 88.7257 78.1677 89.5244V89.5254ZM39.4542 88.2924C40.9364 89.7312 47.7764 89.8718 49.8685 88.9665C45.7645 85.7499 41.788 82.405 39.0511 77.8866C37.6 77.8243 37.9975 86.8791 39.4533 88.2914L39.4542 88.2924ZM64.417 88.822C97.1203 88.2546 96.5303 38.5963 64.0176 38.5963C31.5049 38.5963 31.2944 89.396 64.417 88.822ZM95.9213 86.7507C102.658 85.0381 103.804 80.2997 102.014 73.996L95.9213 86.7507ZM109.795 59.5684C109.835 63.8215 107.594 67.9359 104.271 70.4594C106.383 74.7522 106.997 78.6796 105.912 83.4246C107.23 82.3276 108.007 79.6199 108.52 77.9942C109.887 73.6712 111.445 65.468 110.758 61.0884C110.68 60.5955 110.52 59.4192 109.795 59.5693V59.5684ZM92.0354 75.1091C92.971 77.6449 93.9529 79.4783 93.9746 82.3125C96.4075 79.2253 97.2902 75.3508 98.6932 71.7783L92.0354 75.1091ZM29.342 71.7783C30.8384 75.2479 31.4719 79.5765 34.3297 82.3153C34.0559 79.7587 35.0472 77.4079 36.0026 75.1119L29.342 71.7793V71.7783ZM25.4533 68.9989C21.0151 74.5709 23.6643 79.3717 29.3373 82.3153L25.4533 68.9989ZM18.2518 53.4658C17.0698 60.5323 16.8611 67.0701 18.3972 74.1187L19.9049 78.4285C19.4347 73.3549 20.3703 69.1349 23.1866 64.9148C21.0095 62.9945 20.2268 60.7721 19.4951 58.0399C19.1477 56.7436 19.7671 54.0747 18.2518 53.4648V53.4658ZM91.4803 71.2128C99.0208 68.8733 101.766 62.1656 94.2267 57.0967C93.8132 56.8192 91.4095 55.3388 91.7399 56.7993C92.8266 61.5991 93.1929 66.4961 91.4803 71.2128ZM36.553 55.6853C33.7623 55.7769 29.0277 61.3876 29.0286 63.7271C29.0286 66.0411 33.4828 70.8295 35.7203 71.2232C36.9599 71.4413 36.436 71.2751 36.2953 70.6558C35.1265 65.4935 35.0151 60.8032 36.553 55.6853ZM101.473 52.3536L103.406 66.2223C108.18 61.4877 106.503 55.9704 101.473 52.3536ZM28.2271 47.3594C22.3095 50.5268 21.5004 55.3624 24.3553 61.229C26.0764 60.504 25.2787 58.1834 25.5978 56.654C26.2586 53.4809 27.4831 50.4947 28.2271 47.3594ZM102.082 48.9605L107.013 52.6321L110.338 59.0095C109.89 50.8733 106.498 43.2242 102.025 36.5344C100.963 35.7574 101.626 37.554 101.717 37.9534C102.646 41.9771 102.907 44.8283 102.082 48.9605ZM92.0411 52.331L98.6922 55.6768C97.2903 52.1044 96.4066 48.2298 93.9737 45.1426L92.0401 52.331H92.0411ZM34.3297 45.1398C32.7002 45.8705 29.3902 54.4627 29.9019 55.1274L35.9242 51.537C35.0746 49.4987 34.1465 47.4037 34.3287 45.1398H34.3297ZM31.0008 31.2692C25.2201 36.1199 20.8613 43.8322 19.3611 51.2405L24.0853 45.7091L28.7907 43.4678C27.1508 39.1665 29.6319 35.2004 31.0008 31.2692ZM89.2541 49.578C90.4409 45.8837 89.7828 42.0016 88.4299 38.4811C87.1988 37.0282 80.3476 37.0291 78.7105 38.1969C77.7192 38.9041 78.5094 39.023 79.0768 39.5121C79.9992 40.3079 81.2662 40.8442 82.3387 41.7987C84.9765 44.1466 87.011 46.8996 89.2541 49.578ZM39.4542 38.6095C37.7794 41.978 37.8389 46.0169 38.7801 49.578C41.9995 45.474 45.3425 41.489 49.8666 38.7568C46.5925 36.6807 42.885 37.3114 39.4533 38.6095H39.4542ZM89.8159 34.0486C91.7022 36.3088 93.7905 38.4084 95.5909 40.7507C96.0044 41.2879 98.4392 46.0952 99.2436 45.137C99.6344 38.1913 96.3716 35.1881 89.8149 34.0477L89.8159 34.0486ZM110.898 44.5856V17.6752L110.067 16.8425H83.1591L92.4357 22.2682C97.5858 25.852 101.933 30.1146 105.474 35.3071L110.898 44.5847V44.5856ZM44.8771 16.8425H17.9695L17.1378 17.6752V44.5856L22.5625 35.308C26.1029 30.1155 30.4504 25.8529 35.6004 22.2692L44.8771 16.8435V16.8425ZM42.6575 30.7197C36.0536 30.6565 31.6843 33.7116 32.1214 40.7016L42.6575 30.7197ZM56.5328 36.2625C61.2495 34.548 66.1456 34.9181 70.9454 36.0019C71.8224 36.2002 71.7318 36.3295 71.5156 35.4242C70.8368 32.5853 66.6488 29.6671 64.0176 28.7032C60.802 30.0466 56.9473 32.5475 56.5328 36.2616V36.2625ZM75.3986 35.7074C77.4199 34.6424 80.5336 34.4338 82.0479 32.9402L72.0632 29.6104L75.3996 35.7083L75.3986 35.7074ZM45.4313 34.0373L52.6366 35.7074L55.973 29.6095C55.0478 28.9109 46.2479 32.3549 45.4322 34.0373H45.4313ZM87.6492 30.6593C92.6566 29.9692 96.1281 32.6344 100.357 34.5924C95.2472 28.1244 88.6622 23.6079 81.2057 20.1799C79.5102 20.1006 80.8224 20.7718 81.3115 21.1872C84.4242 23.8326 87.2017 26.2447 87.6501 30.6603L87.6492 30.6593ZM70.9538 24.6171C71.1247 25.6575 72.1217 25.5301 72.826 25.7878C76.4909 27.1312 80.4845 27.6864 83.7066 30.158C81.6938 23.6088 77.1292 22.1436 70.9529 24.6162L70.9538 24.6171ZM32.6709 29.5991C36.7012 27.8639 40.4323 26.6337 44.9082 27.7043C48.7035 17.9075 59.6455 15.2612 66.7913 23.4852L70.8311 20.8842L79.8255 19.6238C63.7957 14.3728 44.6816 17.3807 32.6709 29.5991ZM49.319 27.3824L62.6279 24.3358C61.3251 23.1037 56.884 21.5479 55.2838 21.9368C54.4813 22.1323 48.3504 26.4619 49.3181 27.3824H49.319ZM80.6619 7.4101H93.1447V5.74567H34.8905V7.4101H47.9284C49.7316 8.45804 48.1937 15.1375 48.7639 15.7313C58.7401 12.8754 69.0222 12.6423 78.9947 15.7464C80.1625 15.805 79.7103 15.7398 79.833 14.9185C80.0681 13.3428 79.1514 7.87647 80.6619 7.4101Z" fill="#C90000" stroke="#FFD72E" stroke-width="2" stroke-miterlimit="10"/>
</svg>
