<svg width="130" height="130" viewBox="0 0 130 130" fill="none" xmlns="http://www.w3.org/2000/svg">
<path d="M78.0174 96.2648C78.0174 103.586 74.5457 113.055 64.7614 113.055C52.7679 113.055 50.5586 103.586 50.5586 96.2648" stroke="#E65800" stroke-width="6"/>
<path d="M99.6852 41.6364C99.882 41.6362 100.07 41.5562 100.263 41.5189C104.231 40.7539 108.282 40.5262 112.305 40.839C114.064 40.9758 115.458 42.3604 115.597 44.1196C116.05 49.8399 115.339 55.6021 113.494 61.0674C111.33 67.4749 107.667 73.2964 102.798 78.0658C97.8643 82.9366 91.8084 86.5716 85.1415 88.6642C82.4211 89.517 79.6309 90.1089 76.81 90.436C73.2205 90.8522 71.7104 86.3372 74.0226 83.5602C76.9824 80.0056 79.3786 76.009 81.1105 71.7027C83.7695 65.0913 84.7764 57.9644 84.0644 50.9157C83.9087 49.3747 84.5449 47.8288 85.8726 47.0311C90.1169 44.481 94.7785 42.6552 99.659 41.6379C99.6677 41.6361 99.6764 41.6364 99.6852 41.6364ZM88.763 24.584C90.3821 23.9269 92.2292 24.5255 93.1526 26.009C95.2076 29.3105 96.8063 32.8637 97.9078 36.575C98.5277 38.664 97.1404 40.7397 95.06 41.3879C92.864 42.072 90.7255 42.9195 88.6629 43.9223C86.0992 45.1687 82.8484 43.8036 81.9301 41.1049C81.1801 38.9007 80.2544 36.7545 79.1602 34.6865C79.1286 34.627 79.0968 34.5675 79.0649 34.5081C78.1039 32.7181 78.424 30.4474 80.0909 29.286C82.7916 27.4043 85.7007 25.8268 88.763 24.584ZM62.7752 22.3718C64.11 21.2515 66.0454 21.25 67.3812 22.3691C74.5636 28.3861 79.6115 36.5245 81.7394 45.604C84.0882 55.6256 82.7264 66.1401 77.8975 75.2671C75.2616 80.2133 71.6886 84.6104 67.3791 88.2272C66.0443 89.3474 64.1089 89.349 62.7731 88.2299C55.5908 82.2128 50.5429 74.0745 48.415 64.995C46.0662 54.9734 47.428 44.459 52.2568 35.332C54.8927 30.3857 58.4657 25.9886 62.7752 22.3718ZM37.0017 26.0091C37.9251 24.5255 39.7722 23.9269 41.3915 24.5841C44.4549 25.8274 47.365 27.4056 50.0666 29.2883C51.732 30.4489 52.0536 32.7174 51.0913 34.5047C51.0587 34.5652 51.0262 34.6258 50.9939 34.6865C49.8998 36.7545 48.9741 38.9008 48.2241 41.1051C47.3059 43.8037 44.0552 45.1688 41.4915 43.9225C39.429 42.9198 37.2905 42.0725 35.0946 41.3884C33.0141 40.7403 31.6267 38.6646 32.2467 36.5755C33.3481 32.8641 34.9467 29.3107 37.0017 26.0091ZM16.4741 60.5024C14.7816 55.204 14.1365 49.6467 14.5631 44.1282C14.6994 42.3651 16.0943 40.9754 17.8574 40.8386C21.9186 40.5234 26.0094 40.7591 30.0134 41.5426C30.125 41.5644 30.2324 41.6059 30.3442 41.6266C30.3857 41.6339 30.4277 41.6376 30.4699 41.6376C30.4813 41.6376 30.4926 41.6372 30.5038 41.6395C35.3809 42.6572 40.0392 44.4822 44.2808 47.0306C45.609 47.8286 46.2451 49.3753 46.0888 50.9169C45.3743 57.9656 46.38 65.093 49.0391 71.7047C50.7705 76.0097 53.1663 80.0049 56.1256 83.558C58.4387 86.3353 56.9287 90.8521 53.3384 90.4353C50.5195 90.1081 47.7313 89.5164 45.0128 88.6642C38.346 86.5717 32.29 82.9367 27.3559 78.066C22.3472 73.1507 18.6153 67.1274 16.4741 60.5024ZM52.1814 97.648C52.0547 97.683 51.9398 97.7517 51.8181 97.8013C47.7298 99.4699 43.3414 100.318 38.9121 100.295C29.3728 100.295 20.671 96.4857 15.9001 90.4041C14.9889 89.2426 14.9892 87.619 15.9026 86.4592C18.3564 83.3431 21.9027 80.7588 26.1533 79.0135C26.2208 78.9858 26.2972 79.0024 26.3495 79.0533C31.4431 84.0814 37.6949 87.8337 44.5771 89.9939C49.1073 91.4165 53.8354 92.1395 58.592 92.1369C59.2462 92.1369 59.5798 92.9233 59.086 93.3524C57.036 95.1341 54.7056 96.5854 52.1814 97.648ZM91.2056 100.295C86.7947 100.318 82.4241 99.4772 78.3499 97.8226C78.2217 97.7705 78.101 97.6973 77.9673 97.6615C75.4425 96.6022 73.111 95.1542 71.0592 93.3757C70.5546 92.9383 70.8948 92.1363 71.5625 92.1373C76.3191 92.1395 81.0472 91.4164 85.5774 89.9939C92.4596 87.8338 98.7112 84.0815 103.805 79.0535C103.851 79.0087 103.918 78.994 103.977 79.0184C108.222 80.763 111.765 83.3456 114.216 86.4595C115.129 87.6193 115.129 89.2426 114.218 90.404C109.447 96.4857 100.745 100.295 91.2056 100.295Z" fill="#E65800"/>
<path d="M69.1801 100.419C69.1801 102.859 67.2018 104.837 64.7614 104.837C62.3211 104.837 60.3428 102.859 60.3428 100.419C60.3428 97.9783 62.3211 96 64.7614 96C67.2018 96 69.1801 97.9783 69.1801 100.419Z" fill="#FFD72E"/>
</svg>
