<svg width="165" height="142" viewBox="0 0 165 142" fill="none" xmlns="http://www.w3.org/2000/svg">
<path d="M103 118C103 129.598 93.598 139 82 139C70.402 139 61 129.598 61 118" stroke="#E65800" stroke-width="6"/>
<path d="M137.326 35.8603C137.337 35.8603 137.348 35.8601 137.359 35.8597C137.648 35.8509 137.924 35.7355 138.209 35.6805C145.073 34.3535 152.097 34.0421 159.047 34.7527C160.802 34.9322 162.188 36.3099 162.373 38.0649C163.387 47.6925 162.311 57.4336 159.201 66.6427C155.773 76.7933 149.97 86.0156 142.258 93.5713C134.441 101.288 124.847 107.046 114.286 110.361C108.107 112.298 101.702 113.385 95.2511 113.605C91.6396 113.728 90.2122 109.193 92.7448 106.615C99.267 99.9764 104.427 92.1268 107.9 83.4909C112.297 72.5563 113.843 60.7317 112.415 49.0873C112.226 47.5499 112.871 46.0091 114.181 45.1833C121.239 40.736 129.066 37.5758 137.284 35.8627C137.298 35.8598 137.312 35.8603 137.326 35.8603ZM121.62 8.22042C123.255 7.60283 125.092 8.19851 126.052 9.65866C130.178 15.9336 133.241 22.82 135.125 30.05C135.674 32.1587 134.297 34.2371 132.197 34.8194C126.817 36.3114 121.635 38.4151 116.757 41.0861C114.257 42.4552 111.023 41.0972 110.241 38.3558C108.91 33.6879 107.091 29.1618 104.81 24.8504C104.435 24.1431 104.047 23.4423 103.646 22.7482C102.632 20.9881 102.962 18.7214 104.594 17.5108C109.798 13.6492 115.529 10.5217 121.62 8.22042ZM80.176 4.2585C81.5377 3.17103 83.4635 3.16968 84.8263 4.25565C96.9082 13.8828 105.396 27.2106 108.896 42.1457C112.617 58.0218 110.46 74.6788 102.81 89.1376C98.3672 97.474 92.2444 104.826 84.8239 110.752C83.4623 111.839 81.5365 111.841 80.1736 110.755C68.0918 101.127 59.6042 87.7998 56.1039 72.8647C52.383 56.9887 54.5404 40.3318 62.1901 25.873C66.6326 17.5364 72.7555 10.1847 80.176 4.2585ZM38.9476 9.65878C39.9076 8.19857 41.7455 7.60286 43.3802 8.22049C49.4723 10.5223 55.2043 13.6506 60.409 17.5132C62.0391 18.7229 62.3711 20.9873 61.3566 22.7456C60.9557 23.4404 60.5667 24.1421 60.1895 24.8504C57.9084 29.1619 56.0895 33.688 54.7587 38.356C53.9772 41.0973 50.7429 42.4554 48.2426 41.0864C43.3648 38.4155 38.1832 36.312 32.8032 34.8202C30.7033 34.238 29.3258 32.1596 29.8753 30.0509C31.7592 22.8206 34.8222 15.934 38.9476 9.65878ZM5.50364 65.7475C2.64509 56.7987 1.67252 47.3836 2.6326 38.0738C2.81401 36.3147 4.20168 34.9319 5.96096 34.7522C12.9624 34.037 20.039 34.3589 26.9524 35.7116C27.1292 35.7462 27.2993 35.812 27.4764 35.8448C27.5422 35.8563 27.6088 35.8622 27.6756 35.8622C27.6936 35.8622 27.7116 35.8615 27.7293 35.8652C35.9426 37.579 43.7642 40.7382 50.8176 45.183C52.1286 46.0091 52.7734 47.5507 52.5842 49.0886C51.1517 60.7331 52.6947 72.5589 57.0927 83.4941C60.5656 92.129 65.7256 99.9772 72.2487 106.613C74.7824 109.191 73.3554 113.728 69.7431 113.605C63.2943 113.385 56.8908 112.297 50.7143 110.361C40.1528 107.046 30.559 101.288 22.7424 93.5716C14.8078 85.7849 8.89569 76.2428 5.50364 65.7475ZM62.0706 124.593C61.8716 124.648 61.6888 124.757 61.4976 124.835C55.0202 127.479 48.0673 128.823 41.0496 128.786C25.3594 128.786 11.0994 122.281 3.75447 111.996C2.89653 110.795 2.8967 109.188 3.75655 107.988C7.6526 102.55 13.6007 98.044 20.8373 95.0725C20.9442 95.0286 21.0653 95.055 21.148 95.1357C29.2174 103.101 39.1213 109.046 50.0241 112.468C57.2008 114.721 64.691 115.867 72.2263 115.863C73.2626 115.863 73.7911 117.108 73.0089 117.788C69.7612 120.611 66.0694 122.91 62.0706 124.593ZM123.892 128.787C116.904 128.823 109.979 127.491 103.524 124.869C103.323 124.787 103.13 124.671 102.92 124.615C98.9206 122.936 95.227 120.642 91.9766 117.825C91.1773 117.132 91.7161 115.862 92.7739 115.863C100.309 115.867 107.799 114.721 114.976 112.468C125.879 109.046 135.783 103.101 143.852 95.136C143.925 95.0651 144.031 95.0418 144.125 95.0804C151.353 98.0506 157.294 102.554 161.186 107.988C162.046 109.188 162.046 110.795 161.188 111.996C153.843 122.281 139.583 128.787 123.892 128.787Z" fill="#E65800"/>
<circle cx="82" cy="124" r="7" fill="#E65800"/>
</svg>
