<svg width="47" height="45" viewBox="0 0 47 45" fill="none" xmlns="http://www.w3.org/2000/svg">
<path d="M28.821 34.25C28.821 37.4953 27.2618 41.6926 22.9448 41.6926C17.7312 41.6926 16.6489 37.4953 16.6489 34.25" stroke="#E65800" stroke-width="6"/>
<path d="M38.4261 10.0343C38.5134 10.0342 38.5968 9.99878 38.6824 9.98227C39.8983 9.74782 41.1319 9.62722 42.3668 9.62092C44.1315 9.61192 45.5533 11.0238 45.5376 12.7884C45.5199 14.7742 45.1876 16.7513 44.5472 18.6478C43.5881 21.4881 41.9644 24.0687 39.8062 26.1829C37.619 28.342 34.9345 29.9534 31.9791 30.881C29.1494 31.7681 27.749 28.098 29.1787 25.4999C29.5584 24.8099 29.8971 24.0962 30.1923 23.3622C31.1939 20.8717 31.6667 18.2161 31.5924 15.5571C31.5492 14.0088 32.1575 12.4423 33.5393 11.7426C35.0761 10.9644 36.7154 10.3892 38.4145 10.035C38.4184 10.0342 38.4222 10.0343 38.4261 10.0343ZM32.0969 3.15206C33.6561 2.36309 35.54 2.97335 36.3344 4.52974C36.6846 5.21578 36.993 5.92161 37.2579 6.64349C37.8219 8.18056 36.7593 9.74026 35.228 10.3198C33.2248 11.0779 30.7581 10.0371 29.8799 8.08349C29.7082 7.70156 29.5241 7.32473 29.3277 6.95358C28.8815 6.113 29.0306 5.049 29.814 4.50852C30.5429 4.00557 31.3057 3.55241 32.0969 3.15206ZM20.8615 2.59256C22.0987 1.36535 24.0725 1.36374 25.3099 2.59078C27.8551 5.11463 29.6516 8.29644 30.4711 11.7931C31.5122 16.2355 30.9086 20.8965 28.768 24.9423C27.8545 26.6564 26.6872 28.2218 25.3084 29.5894C24.0712 30.8166 22.0974 30.8182 20.86 29.5911C18.3149 27.0673 16.5184 23.8855 15.6989 20.3889C14.6577 15.9464 15.2614 11.2855 17.4019 7.23972C18.3154 5.52555 19.4827 3.96018 20.8615 2.59256ZM9.83549 4.52987C10.6299 2.97341 12.5138 2.36312 14.0731 3.15214C14.8642 3.55247 15.6269 4.00561 16.3559 4.50854C17.1394 5.04916 17.2895 6.11332 16.8421 6.95358C16.6457 7.32477 16.4615 7.70166 16.2899 8.08363C15.4118 10.0372 12.9452 11.078 10.942 10.32C9.41067 9.74049 8.34802 8.18082 8.91204 6.64374C9.17694 5.92182 9.4853 5.21595 9.83549 4.52987ZM1.54001 18.3973C0.959129 16.5788 0.656569 14.6915 0.637335 12.7967C0.619385 11.0283 2.04245 9.61133 3.81085 9.621C5.06152 9.62784 6.31089 9.75191 7.54176 9.99275C7.59122 10.0024 7.63884 10.0208 7.6884 10.03C7.70679 10.0332 7.72543 10.0349 7.74412 10.0349C7.74917 10.0349 7.75419 10.0347 7.75914 10.0357C9.45657 10.3899 11.0942 10.9647 12.6296 11.7421C14.012 12.4421 14.6202 14.0093 14.5765 15.5582C14.5015 18.2171 14.9739 20.8727 15.9756 23.3631C16.2708 24.0973 16.6097 24.8112 16.9896 25.5014C18.4191 28.0983 17.0194 31.7677 14.1908 30.881C11.2355 29.9534 8.55095 28.3421 6.36372 26.183C4.14348 24.0041 2.48917 21.3341 1.54001 18.3973ZM17.3685 34.8633C17.3123 34.8789 17.2614 34.9093 17.2074 34.9313C15.3951 35.671 13.4498 36.047 11.4864 36.0367C7.80049 36.0367 4.39662 34.7537 2.18302 32.639C1.11557 31.6192 1.1171 29.9364 2.18604 28.9182C3.17614 27.9751 4.41533 27.1841 5.83065 26.603C5.86056 26.5907 5.89444 26.5981 5.9176 26.6207C8.17554 28.8495 10.9468 30.5129 13.9976 31.4704C16.0058 32.101 18.1017 32.4215 20.2102 32.4204C20.5002 32.4204 20.648 32.769 20.4292 32.9592C19.5204 33.749 18.4874 34.3923 17.3685 34.8633ZM34.6673 36.0368C32.712 36.047 30.7746 35.6742 28.9685 34.9408C28.9117 34.9177 28.8582 34.8852 28.7989 34.8694C27.6797 34.3998 26.6462 33.7579 25.7367 32.9695C25.513 32.7756 25.6638 32.4201 25.9598 32.4206C28.0683 32.4216 30.1642 32.101 32.1724 31.4704C35.2231 30.5129 37.9944 28.8496 40.2523 26.6207C40.2727 26.6009 40.3025 26.5944 40.3288 26.6052C41.742 27.1859 42.9794 27.9762 43.9682 28.9184C45.0369 29.9366 45.0383 31.6191 43.971 32.6388C41.7574 34.7537 38.3533 36.0368 34.6673 36.0368Z" fill="#E65800"/>
<path d="M22.9453 33.918C24.3031 33.9181 25.4033 35.0191 25.4033 36.377C25.4032 37.7347 24.303 38.8348 22.9453 38.835C21.5875 38.835 20.4865 37.7347 20.4863 36.377C20.4863 35.019 21.5874 33.918 22.9453 33.918Z" fill="#C90000" stroke="#FFD72E"/>
</svg>
