<svg width="20" height="21" viewBox="0 0 20 21" fill="none" xmlns="http://www.w3.org/2000/svg">
<path d="M6.3335 16.2503L10.0002 13.3274L13.6668 16.2503L12.2918 11.5066L15.9585 8.77533H11.4668L10.0002 3.79199L8.5335 8.77533H4.04183L7.7085 11.5066L6.3335 16.2503ZM10.0002 20.0837C8.73211 20.0837 7.54044 19.8319 6.42516 19.3285C5.30989 18.825 4.33975 18.1424 3.51475 17.2805C2.68975 16.4187 2.03678 15.4044 1.55583 14.2378C1.07489 13.0712 0.834108 11.8254 0.833497 10.5003C0.832886 9.17527 1.07366 7.92944 1.55583 6.76283C2.038 5.59621 2.69097 4.58198 3.51475 3.72012C4.33853 2.85826 5.30866 2.1756 6.42516 1.67216C7.54166 1.16871 8.73333 0.916992 10.0002 0.916992C11.267 0.916992 12.4587 1.16871 13.5752 1.67216C14.6917 2.1756 15.6618 2.85826 16.4856 3.72012C17.3094 4.58198 17.9626 5.59621 18.4454 6.76283C18.9282 7.92944 19.1687 9.17527 19.1668 10.5003C19.165 11.8254 18.9242 13.0712 18.4445 14.2378C17.9648 15.4044 17.3118 16.4187 16.4856 17.2805C15.6594 18.1424 14.6892 18.8254 13.5752 19.3294C12.4611 19.8335 11.2694 20.0849 10.0002 20.0837Z" fill="black"/>
</svg>
