<?xml version="1.0" encoding="UTF-8"?>
<svg id="Layer_1" data-name="Layer 1" xmlns="http://www.w3.org/2000/svg" viewBox="0 0 826.48 504.05">
  <defs>
    <style>
      .cls-1 {
        fill: #2e3192;
      }

      .cls-2 {
        fill: #fff200;
      }

      .cls-3, .cls-4 {
        fill: none;
      }

      .cls-3, .cls-4, .cls-5, .cls-6 {
        stroke: #006838;
        stroke-miterlimit: 10;
      }

      .cls-3, .cls-6 {
        stroke-width: 5px;
      }

      .cls-7, .cls-5, .cls-6 {
        fill: #006838;
      }

      .cls-8 {
        fill: #f5841f;
      }

      .cls-9 {
        fill: #680500;
      }

      .cls-4, .cls-5 {
        stroke-width: 3px;
      }

      .cls-10 {
        fill: #ed3624;
      }

      .cls-11 {
        fill: #fcb415;
      }

      .cls-12 {
        fill: #ffd81a;
      }
    </style>
  </defs>
  <g>
    <path class="cls-7" d="M804.77,306.62l-1.04,3.83c-.81,6.09,3.15,11.21,4.72,16.77,1.52,5.39,1.74,11.65-1.26,16.6.5.09.64-.31.84-.66,2.94-5.23,2.89-10.56,1.63-16.26-1.47-6.63-6.29-14.07-2.18-20.63l-.6,4.04c.32,9.05,6.66,16.66,5.6,25.9.52.21.52-.88.54-1.16.18-2.24-.41-4.49-.28-6.73.38.61.46,1.6.56,2.31.35,2.56.71,7.61,0,10.02-.76,2.55-2.57,4.51-4.27,6.46.41.09.65-.28.9-.5,1.59-1.4,4.51-5.78,5.45-7.72.7-1.45.65-3,1.23-4.47l-.57,4.23c-1.1,3.89-3.38,7-5.92,10.03.91-.33,1.93-1.49,2.6-2.24,3.31-3.72,5.03-7.89,5.37-12.86.38.61.22,1.78.16,2.48-.66,8.44-5.97,14.1-13.16,17.78-4.42,2.26-9.8,3.08-13.43,6.76-2.56,2.59-3.62,6.09-4.56,9.52.38,0,.94-1.13,1.11-1.45,5.4-10.48,8.44-9.41,18.13-13.39,8.82-3.61,14.85-10.71,15.55-20.49.38.45.12,1.57.05,2.12-.95,7.16-4.48,12.42-10.27,16.53-6.6,4.69-14.27,5.31-20.13,11.58-5.16,5.52-4.81,10.45-6.91,17.1-4.12,13.02-11.72,23.56-21.52,32.92-10.74,10.25-27.46,20.27-42.22,22.9-1.57.28-3.74.79-5.21.25,3.61-1,7.31-1.6,10.9-2.7,25.5-7.79,50.16-30.03,57.94-55.98.93-3.11,2.37-8.18,2.48-11.3.47-12.93-10.71-14.33-15.68-23.47-2.36-4.33-3.31-9.74-1.81-14.55.09-.28.18-.99.58-.76-1.82,6.77,1.09,13.88,5.7,18.8-1.16-2.74-3.83-5.51-4.71-8.28-2.62-8.3,2.03-14.37,3.2-22.04.02-.12-.21-2.86.36-1.79.55,4.08-1.73,7.77-2.73,11.61-1.22,4.69-1.17,9.54.56,14.07.17.43.27.58.42.02-.6-3.97-1.09-8.36.05-12.29,1.61-5.57,5.3-10.11,6.95-15.49.95-3.1.44-5.27-1.13-7.99,1.06-.02,1.32.77,1.63,1.64,1.96,5.56-1.87,10.41-4.02,15.24s-3.86,10.86-2.35,16.04c-.44-7.52,1.67-15.07,6.89-20.67.89-.95,2.04-1.7,2.92-2.7,3.12-3.51,5.93-9.38,3.49-13.89,1.45,1.17,1.67,3.46,1.46,5.19-.98,7.8-8.37,10.44-10.92,17.31l3.57-4.01c-4.27,5.71-7.36,13.86-4.5,20.76-.03-1.48-.53-2.84-.62-4.33-.37-6.22,2.05-11.27,6.09-15.83,4.57-5.16,12.3-10.09,11.32-17.99.54.09.66,1.2.73,1.62,1.62,9.6-13.88,16.98-15.46,26.33l-.56,5.66c.88-5.31,2.91-9.72,6.39-13.81,3.11-3.66,10.34-9.01,12.03-13.29l1.46-3.7c.05-.14-.27-1.1.34-.86.32,9.59-10.33,14.21-14.29,21.74l3.06-3.55c5.73-4.92,11.31-10.43,12.42-18.29.39.16.13.94.1,1.28-.11,1.02-.31,2.08-.67,3.05l1.17-1.53c-3.65,6.35-2.12,13.19,1.78,18.96.17.11.27-.19.26-.32-.03-.59-2.15-4.28-2.56-5.44-.76-2.16-1.61-5.74-.98-7.96.08-.27.19-.99.58-.76-.33,2.22.18,4.58.78,6.72,1.26,3.13,2.4,6.33,3.67,9.45.11.28.29.92.5.19-1.59-5.09-4.23-9.85-4.27-15.33,0-.26-.09-1.13.41-.9-.25,4.08,2.05,7.65,3.38,11.32.78,2.15,1.2,4.45,2.11,6.55.23-.59-.04-1.28-.17-1.87-1.26-5.8-4.99-12.01-4.09-18.06.14-.91.34-3.06,1.4-3.17-1,2.3-1.7,5.25-.41,7.54.37-.23.28-3.6.53-4.21l1.41-3.58ZM787.99,324.52c4.06-3.27,8.05-6.36,9.96-11.47-.32-.2-.53.3-.69.52-1.2,1.7-1.98,3.21-3.42,4.85-1.73,1.98-4.06,3.47-5.68,5.3-.18.2-.64.67-.17.8ZM789.15,356.94c1.17-4.38,6.17-3.73,9.03-6.31,4.68-4.23,3.42-11.32-1.98-14.22-9.09-4.88-19.11,5.33-12.02,13.39,1.15,1.3,2.82,2.26,3.76,3.69.73,1.11.74,2.31,1.22,3.46Z"/>
    <path class="cls-12" d="M787.09,385.24l.11-.92c4.54-6.64,7.9-12.9,14.67-17.58,4.05-2.8,8.81-4.36,12.81-7.25,5.31-3.85,8.68-8.61,10.72-14.88.27-.82.29-1.85.53-2.69.08-.29.12-.98.54-.75-1.28,9.06-5.71,16.72-12.95,22.25-3.48,2.66-7.46,4.54-11.09,6.96-5.94,3.97-11.2,8.99-15.34,14.85Z"/>
    <path class="cls-12" d="M758.59,414.77c-.46-.52.59-1.52.84-2.08,5.4-12.23,3.44-27.87-7.33-36.51l-6.69-4.56c4.29,2.19,8.96,4.9,12.53,8.16,10.66,9.73,8.32,24.09.64,34.99Z"/>
    <path class="cls-12" d="M752.97,425.39c5.91-4.07,14.04-5.66,21.11-4.36,4.22.78,8.05,2.61,12.46,2.81,3.25.15,6.28-.82,9.22-2.07-.2.5-.84.79-1.28,1.06-11.63,7.04-22.83-1.55-35.12,1.05l-6.4,1.51Z"/>
    <path class="cls-12" d="M766.13,413.76c-.1-.26,1.33-1.03,1.62-1.21,5.61-3.3,13.43-4.56,19.83-3.31,3.49.68,6.7,2.08,10.31,2.56,4.23.55,7.69-.22,11.47-2.06-1.18,1.18-3.08,2.14-4.64,2.74-9.08,3.5-15.83-.58-24.7-.86-4.72-.15-9.49.46-13.9,2.14Z"/>
    <path class="cls-7" d="M761.71,419.15c-.1-.25,1.83-1.29,2.13-1.44,10.92-5.62,16.31-2.91,27.3-.71,4.91.98,9.43.63,13.81-1.87-1.5,1.43-3.89,2.6-5.85,3.26-7.26,2.43-12.31.2-19.37-.82-6.06-.87-12.22-.33-18.02,1.58Z"/>
    <path class="cls-7" d="M775.1,404.75c4.16-2.97,9.76-4.55,14.86-4.64,9.59-.18,18.25,6.28,27.6,1.17.12.35-3.3,2.17-3.78,2.37-9.14,3.82-16.46-.47-25.47-.73-3.18-.09-6.7.27-9.81.95-.47.1-3.28,1.15-3.4.88Z"/>
    <path class="cls-7" d="M743.92,430.94c4.28-2.85,9.45-4.53,14.61-4.74,9.79-.4,18.69,6.45,28.19,1.12-1.02,1.06-2.75,1.97-4.12,2.51-10.72,4.24-20.74-2.59-31.68-.45l-6.99,1.56Z"/>
    <path class="cls-7" d="M744.53,379.25c3.22,1.67,7.93,5.98,10.12,8.91,7.74,10.35,3.69,23.95-3.82,33.24-.46-.11-.02-.66.11-.92.68-1.29,1.75-2.57,2.39-3.93,3.99-8.57,3.21-22.52-2.19-30.36-1.46-2.12-5.1-6.06-7.45-6.99l-4.19-1.66c-.12-.05-.61.27-.52-.49,1.73.84,3.87,1.32,5.55,2.19Z"/>
    <path class="cls-12" d="M771.6,402.79c-.38-.07-.14-.6-.08-.88,1.45-7.42,1.48-13.31-2.54-19.96-4.52-7.48-12.19-11.72-15.32-20.35-.27-.74-.7-1.9-.66-2.68,1.38,2.76,2.3,5.63,4.33,8.04,2.85,3.38,6.87,5.08,10.01,8.14,7.6,7.41,7.91,18.23,4.26,27.7Z"/>
    <path class="cls-12" d="M779.76,385.76c-.61-1.99-.54-4.13-1.16-6.14-2.61-8.49-11.52-12.63-16.39-19.68-3.63-5.25-6.46-12.89-5.68-19.31l.38,4.23c2.37,15.67,17.24,18.19,21.67,31.3,1.04,3.07,1.27,6.38,1.19,9.6Z"/>
    <path class="cls-1" d="M782.55,393.14c3.24-3.73,6.14-7.24,10.25-10.08,7.12-4.92,14.91-4.82,19.79-13.31l1.28-2.46c-.74,3.22-3.22,6.92-5.42,9.42-4.08,4.63-11.07,6.89-16.33,9.97-3.34,1.95-6.27,4.47-9.57,6.46Z"/>
    <path class="cls-7" d="M790.44,371.01c3.94-8.06,12.6-11.01,20.5-13.58l5.99-3.63c-4.57,5.23-11.94,6.91-17.4,10.8-2.93,2.09-5.71,4.93-7.85,7.83l-4.79,7.58,3.56-9.01Z"/>
    <path class="cls-12" d="M749.23,416.07c.74-2.62.81-7.34.71-10.12-.29-8.03-3.21-15.04-11.27-18.02,8.92,1.38,13.96,11.07,13.73,19.41-.15,5.81-2.72,11.35-6.05,16.01-.65-.42.56-1.41.64-1.6.7-1.77,1.74-3.9,2.24-5.68Z"/>
    <path class="cls-12" d="M781.48,395.86l4.16-2.89c7.33-4.98,16.78-4.66,24.17-9.33l3.67-3.09c-3.34,4.82-8.45,8.57-14.15,10.05-2.5.65-5.02.64-7.48,1.15-3.66.76-7,2.61-10.38,4.12Z"/>
    <path class="cls-12" d="M783.91,377.41l-.47-3.99c-1.66-8.99-7.65-12.65-12.69-19.24-4.59-6.02-8.73-14.33-6.88-22.07l.22,6.34c.81,5.48,4.23,11.82,8.19,15.67,1.62,1.57,3.56,2.85,5.16,4.51,4.76,4.95,7.35,11.9,6.45,18.77Z"/>
    <path class="cls-1" d="M781.67,384.52l-.37-6.69c-.74-3.85-2.3-7.56-4.76-10.61l-9.16-10.03c2.97,2.27,6.56,4.27,9.13,6.98,5.05,5.34,6.75,13.27,5.17,20.35Z"/>
    <path class="cls-1" d="M766.78,404.17c1.27-4.28,1.14-11.25.19-15.63-.74-3.44-2.36-6.71-4.98-9.09,1.15.28,2.22,1.68,2.98,2.6,6.96,8.44,5.37,19.88-.68,28.41-.63-.3.39-.97.44-1.11.65-1.65,1.56-3.53,2.05-5.18Z"/>
    <path class="cls-7" d="M785.86,372.48l-.42-3.39c-2.59-12.99-13.41-14.72-17.55-25.11-.59-1.47-1.18-3.5-1.27-5.07,1.25,3.75,2.5,7.3,5.13,10.35s6.38,4.9,9.26,7.84c3.9,3.99,5.72,9.87,4.85,15.38Z"/>
    <path class="cls-7" d="M743.55,423.95l1.84-7.03c1.24-6,.41-11.86-2.53-17.2,1.66,1.09,2.86,3.66,3.53,5.52,2.25,6.26,1.13,13.39-2.84,18.71Z"/>
    <path class="cls-1" d="M802.41,397c-.08.37-.58.19-.85.15-2.06-.29-3.7-.65-5.84-.73-7.35-.26-13.92,1.87-20.14,5.66.23-.59.9-.91,1.4-1.25,3.43-2.37,8.01-4.78,12.13-5.51,4.57-.8,8.97.09,13.3,1.67Z"/>
    <path class="cls-7" d="M739.38,428.01c-.48-.13,0-.6.14-.86,1.49-2.95,2.01-5.14,2.52-8.37,1.17-7.36.84-14.61-5.15-19.85l-3.25-2.58c11.17,5.39,13.04,22.38,5.74,31.65Z"/>
    <path class="cls-7" d="M775.42,397.46l.97-6.66c.13-4.97-.83-9.98-3.06-14.42l-3.73-4.62c8.48,5.82,9.6,16.69,5.82,25.69Z"/>
    <path class="cls-7" d="M814.06,339.4l.33-7.19c-.13-2.41-.67-4.78-.88-7.19-.41-4.82-1.77-11.41,2.53-14.79-.12.74-.84,1.24-1.2,1.95-2.69,5.45-.42,12.04.18,17.71.35,3.36.83,6.4-.96,9.51Z"/>
    <path class="cls-7" d="M795.16,406.69l-4.91-.72c-6.78-.31-14.34-.16-20.35,3.29,1.7-1.91,5.01-2.69,7.48-3.27,5.67-1.33,12.33-1.61,17.78.7Z"/>
    <path class="cls-7" d="M785.3,316.9c2.69-3.02,5.12-5.85,6.13-9.92l.14-4.15c1.79,4.95-2.12,11.44-6.27,14.07Z"/>
    <path class="cls-7" d="M809.43,316.46c-1.09-2.87-.68-6.82,1.35-9.17l-1.12,2.83c-.73,2.1-.14,4.2-.23,6.33Z"/>
    <path class="cls-1" d="M793.38,338.15c6.16,2.14,5.11,11.36-1.17,11.93-5.54.5-8.91-5.32-5.68-9.82,1.44-2.01,4.53-2.93,6.85-2.12Z"/>
  </g>
  <g>
    <circle class="cls-11" cx="172.16" cy="173.92" r="91.85"/>
    <g>
      <path class="cls-11" d="M54.04,174.12c4.21,0,9.53,2.89,13.57,5.56-.1-1.91-.16-3.83-.16-5.76,0-7.8.88-15.38,2.49-22.69-21.04-9.18-37.13,4.75-43.76,15.93-6.96,11.75-18.28,10.88-21.33,9.14s-6.09-1.31-4.35,1.74c11.32,13.06,26.11,9.14,32.21,6.53,6.09-2.61,11.28-10.45,21.33-10.45Z"/>
      <path class="cls-11" d="M172.06,54.04c0,4.88-3.89,11.29-6.82,15.42,2.29-.15,4.6-.25,6.92-.25,7.57,0,14.94.82,22.05,2.35,10.63-21.83-3.72-38.58-15.19-45.37-11.75-6.96-10.88-18.28-9.14-21.33,1.74-3.05,1.31-6.09-1.74-4.35-13.06,11.32-9.14,26.11-6.53,32.21,2.61,6.09,10.45,11.28,10.45,21.33Z"/>
      <path class="cls-11" d="M45.78,112.84c6.58.79,14.99-3.41,23.69,1.62,3.81,2.2,7.1,7.74,9.27,12.18,4.36-8.6,9.86-16.52,16.32-23.55-13.62-19.05-34.8-15.02-46.23-8.59-11.91,6.69-21.27.28-23.04-2.75-1.77-3.03-4.62-4.18-4.64-.67,3.27,16.97,18.05,20.97,24.63,21.76Z"/>
      <path class="cls-11" d="M92.96,57.26c5.31,3.97,14.68,4.54,19.71,13.25,2.32,4.02,2.29,10.98,1.87,15.99,7.99-5.27,16.73-9.49,26.04-12.43-1.97-23.81-22.58-31.02-35.81-31.17-13.66-.16-18.56-10.39-18.58-13.9-.02-3.51-1.92-5.93-3.68-2.9-5.65,16.33,5.14,27.18,10.45,31.16Z"/>
      <path class="cls-11" d="M241.93,95.86c20.37-13.58,16.3-35.37,9.75-47.03-6.69-11.91-.28-21.27,2.75-23.04,3.03-1.77,4.18-4.62.67-4.64-16.97,3.27-20.97,18.05-21.76,24.63-.79,6.58,3.41,14.99-1.62,23.69-2.52,4.36-9.41,8.05-14.03,10.13,8.85,4.28,16.99,9.78,24.24,16.26Z"/>
      <path class="cls-11" d="M271.44,140.62c24.34-1.64,31.69-22.49,31.84-35.85.16-13.66,10.39-18.56,13.9-18.58,3.51-.02,5.93-1.92,2.9-3.68-16.33-5.65-27.18,5.14-31.16,10.45-3.97,5.31-4.54,14.69-13.25,19.71-4.4,2.54-12.33,2.26-17.37,1.75,5.54,8,9.97,16.8,13.13,26.2Z"/>
      <path class="cls-11" d="M345.67,168.14c-11.32-13.06-26.11-9.14-32.21-6.53-6.09,2.61-11.28,10.45-21.33,10.45-4.99,0-11.55-4.05-15.67-7,.25,2.92.4,5.87.4,8.86,0,6.99-.7,13.81-2,20.41,21.71,10.41,38.36-3.89,45.12-15.31,6.96-11.75,18.28-10.88,21.33-9.14,3.05,1.74,6.09,1.31,4.35-1.74Z"/>
      <path class="cls-11" d="M253.22,288.92c-5.31-3.97-14.68-4.54-19.71-13.25-2.25-3.9-2.29-10.59-1.91-15.56-7.91,5.47-16.61,9.86-25.9,13,2.46,23,22.66,30.02,35.7,30.17,13.66.16,18.56,10.39,18.58,13.9.02,3.51,1.92,5.93,3.68,2.9,5.65-16.33-5.14-27.18-10.45-31.16Z"/>
      <path class="cls-11" d="M300.4,233.34c-6.58-.79-14.99,3.41-23.69-1.62-4.12-2.38-7.64-8.67-9.77-13.25-4.18,8.89-9.59,17.08-15.99,24.39,13.62,19.32,34.92,15.28,46.4,8.82,11.91-6.69,21.27-.28,23.04,2.75,1.77,3.03,4.62,4.18,4.64.67-3.27-16.97-18.05-20.97-24.63-21.76Z"/>
      <path class="cls-11" d="M174.12,292.14c0-4.29,3-9.75,5.72-13.82-2.54.18-5.09.31-7.68.31-7.21,0-14.25-.73-21.06-2.12-8.93,20.91,4.92,36.88,16.05,43.48,11.75,6.96,10.88,18.28,9.14,21.33-1.74,3.05-1.31,6.09,1.74,4.35,13.06-11.32,9.14-26.11,6.53-32.21-2.61-6.09-10.45-11.28-10.45-21.33Z"/>
      <path class="cls-11" d="M72.4,205.78c-22.47,2.78-29.35,22.71-29.5,35.63-.16,13.66-10.39,18.56-13.9,18.58-3.51.02-5.93,1.92-2.9,3.68,16.33,5.65,27.18-5.14,31.16-10.45,3.97-5.31,4.54-14.69,13.25-19.71,3.56-2.06,9.44-2.26,14.21-2-5.21-7.9-9.39-16.54-12.32-25.73Z"/>
      <path class="cls-11" d="M102.17,251.79c-18,13.64-13.99,34.31-7.67,45.55,6.69,11.91.28,21.27-2.75,23.04-3.03,1.77-4.18,4.62-.67,4.64,16.97-3.27,20.97-18.05,21.76-24.63.79-6.58-3.41-14.99,1.62-23.69,2.07-3.58,7.09-6.71,11.38-8.87-8.63-4.26-16.59-9.67-23.67-16.04Z"/>
    </g>
  </g>
  <g>
    <path class="cls-7" d="M182.59,181.34c2.26,1.94,4.24,4.1,4.54,7.24,1.18,12.25-16.68,15.48-22.19,6.3-3.65-6.09-3.4-14.28,1.62-19.5l-1.57,3.82c-2.88,9.18,1.82,20.71,13.07,18.18,10.46-2.36,8.89-14.2,0-17.32.32-.73,2.49-.34,3.26-.43,3.03-.34,6.62-.44,6.41-4.4-.18-3.46-3.09-3.23-5.7-2.98,1.97-2.32,6.11-1.96,7.49.88,2.46,5.03-1.93,8.86-6.93,8.21Z"/>
    <path class="cls-7" d="M159.04,188.15c.95-1.99,1.67-4.18.82-6.36-1.24-3.17-5.27-4.7-8.35-3.59-6.87,2.48-6.56,12.53-2.81,17.59,4.33,5.84,11.7,6.63,18.42,6.25.38-.02,1.77-.2,1.86.29-7.8,2.2-17.25,1.37-22.37-5.58-3.87-5.26-4.34-14.81,1.28-19.06,7.51-5.68,18.02,3.13,11.17,10.45Z"/>
    <path class="cls-7" d="M191.53,181.9c6.74.72,10,6.79,8.29,13.12-2.51,9.31-16.73,8.01-24.15,9.06-3.37.48-10.63,1.29-8,6.22.35.66.99,1.05,1.15,1.69-2.35-1.05-3.69-4-1.99-6.25,3.41-4.51,18.42-4.22,23.99-5.82,5.94-1.71,8.96-6.24,6.67-12.34-1.53-4.07-6.02-4.42-9.64-5.12-.41-.08-.88,0-1-.56,1.51.11,3.2-.16,4.68,0Z"/>
    <path class="cls-7" d="M166.41,152.95c1.09-6.88-9.16-7.42-8.2-.17.61,4.6,5.95,8.36,6.47,13.39.26,2.48-.68,5.47-2.52,7.21.28-1.39,1.01-2.68,1.13-4.12.56-6.68-6.72-9.99-7.59-16.53-1.38-10.47,15.97-8.99,11.24,1.45-.68,1.51-1.6,3.02-3.44,2.1-3.3-1.65.23-6.23,2.91-3.34Z"/>
    <path class="cls-7" d="M170.96,194.11c-.43-.05-.63-1.06-.72-1.41-2.15-8.44,4.87-13.62,7.87-20.26,1.62-3.58,2.59-7.66,3.07-11.54-1.66.63-3.78.02-4.82-1.42l4.66.82.45-1.39c-1.62.38-4.1.76-5.11-.85l5.11.28.57-1.98c1.02,5.68.44,11.99-1.85,17.31-1.93,4.5-9.22,11.74-9.22,16.33v4.12Z"/>
    <path class="cls-7" d="M159.6,168.84l-.7-3.41c-1.83-5.01-5.74-2.55-6.83,1.41-1.3,4.69,1.35,9.64,5.66,4.81l1.58-2.53c-.63,9.14-11.01,8.13-9.9-1.53,1.1-9.59,13.31-9.14,10.18,1.24Z"/>
    <path class="cls-7" d="M183.73,169.41c2.24-2.51,9.22-6.77,9.36-10.39.08-2.18-3.12-3.16-4.89-2.89-1.51.24-2.08,1.27-2.91,1.64s-.18-.81.03-1.11c2.74-3.97,10.31-2.74,10.07,2.68-.2,4.54-7.53,9.37-11.66,10.07Z"/>
    <path class="cls-7" d="M172.66,143.86c-2.5-2.69,1.13-5.46,2.96-2.24s-4.24,6.46-6.52,3.96c-1.51-1.65-.6-4.3.71-5.83-.61-.84-1.45-.25-2.26-.14-.89-.92,4.16-2.95,3.99.71-.06,1.38-2.69,4.63,1.11,3.55Z"/>
    <path class="cls-7" d="M201.61,175.66c-.54,3.67-4.9,4.78-7.92,3.23-3.23-1.66-3.91-6.16-.88-8.35-1.64,4.58,2.72,8.4,7.02,6.31.7-.34.98-1.18,1.78-1.19Z"/>
    <path class="cls-7" d="M183.45,148.7c-3.31,4.74-10.91,5.63-15.04,1.55l7.51.14,7.53-1.7Z"/>
    <path class="cls-7" d="M184.01,152.39c-3.33,4.65-10.83,5.4-15.04,1.55-.11-.63.25-.42.67-.39,1.05.08,2.4.48,3.44.54,3.85.21,7.23-.93,10.93-1.7Z"/>
    <path class="cls-7" d="M181.46,145.01c-3.12,4.64-10.96,5.44-15.04,1.55-.11-.66.22-.39.63-.35,2.3.2,4.18.66,6.6.49,2.69-.19,5.18-1.26,7.81-1.7Z"/>
    <path class="cls-7" d="M196.43,170.61c3.96-.64,4.23,4.98.71,5.27-3.1.25-4-4.74-.71-5.27Z"/>
    <path class="cls-7" d="M167.26,166.29c.26.25,1.56,5.59,2.14,6.81.23.49,2.3,3.54,2.12,3.69-4.41-.39-6.59-6.4-4.89-10.14.13-.3.25-.73.63-.36Z"/>
    <path class="cls-7" d="M176.64,167.43c.98-3.86-2.16-5.94-4.83-7.94,3.38.27,7.47,4.85,4.83,7.94Z"/>
    <path class="cls-7" d="M175.21,166.57c-2.64,0-4.27-2.04-4.54-4.54.29-.31,1.47,1.02,1.71,1.27.94.98,1.83,2.28,2.83,3.27Z"/>
  </g>
  <g>
    <path class="cls-5" d="M311.89,402.53v15.04h35.31c.8,0,1.42-.19,1.85-.56.43-.38.78-1.05,1.05-2.01h1.29v14.2h-1.29c-.27-.97-.62-1.64-1.05-2.01-.43-.38-1.05-.56-1.85-.56h-49.87v-1.29c.97-.27,1.64-.62,2.01-1.05.38-.43.56-1.06.56-1.89v-46.45c0-.83-.19-1.46-.56-1.89-.38-.43-1.05-.78-2.01-1.05v-1.29h48.91c.8,0,1.42-.19,1.85-.57.43-.38.78-1.05,1.05-2h1.29v14.2h-1.29c-.27-.95-.62-1.62-1.05-2-.43-.38-1.05-.57-1.85-.57h-34.35v13.03h22.28c.8,0,1.42-.19,1.85-.56.43-.38.78-1.05,1.05-2.01h1.29v13.88h-1.29c-.27-.94-.62-1.6-1.05-1.99-.43-.39-1.05-.58-1.85-.58h-22.28Z"/>
    <path class="cls-5" d="M374.47,402.53v15.04h35.31c.8,0,1.42-.19,1.85-.56.43-.38.78-1.05,1.05-2.01h1.29v14.2h-1.29c-.27-.97-.62-1.64-1.05-2.01-.43-.38-1.05-.56-1.85-.56h-49.87v-1.29c.97-.27,1.64-.62,2.01-1.05.38-.43.56-1.06.56-1.89v-46.45c0-.83-.19-1.46-.56-1.89-.38-.43-1.05-.78-2.01-1.05v-1.29h48.91c.8,0,1.42-.19,1.85-.57.43-.38.78-1.05,1.05-2h1.29v14.2h-1.29c-.27-.95-.62-1.62-1.05-2-.43-.38-1.05-.57-1.85-.57h-34.35v13.03h22.28c.8,0,1.42-.19,1.85-.56.43-.38.78-1.05,1.05-2.01h1.29v13.88h-1.29c-.27-.94-.62-1.6-1.05-1.99-.43-.39-1.05-.58-1.85-.58h-22.28Z"/>
    <path class="cls-5" d="M437.04,404.22v18.22c0,.8.19,1.43.58,1.87.39.44,1.05.78,1.99,1.03v1.29h-17.13v-1.29c.97-.27,1.64-.62,2.01-1.05.38-.43.56-1.05.56-1.85v-46.49c0-.83-.19-1.46-.56-1.89-.38-.43-1.05-.78-2.01-1.05v-1.29h34.35c4.18,0,7.5.24,9.95.72,2.45.48,4.59,1.33,6.41,2.53,2.12,1.39,3.7,3.28,4.75,5.67.99,2.31,1.49,4.77,1.49,7.4,0,8.96-4.97,14.2-14.92,15.73l10.66,15.16c1.88,2.65,3.25,4.36,4.12,5.13.87.76,1.94,1.19,3.2,1.27v1.29h-19.83v-1.29c1.36-.21,2.05-.7,2.05-1.45,0-.48-.63-1.65-1.89-3.5l-11.12-16.17h-14.65ZM437.04,395.17h18.5c2.73,0,4.67-.08,5.79-.24,1.13-.16,2.16-.5,3.1-1.01,2.04-1.1,3.06-3.08,3.06-5.95s-1.02-4.85-3.06-5.95c-.97-.54-1.99-.88-3.08-1.03-1.09-.15-3.02-.22-5.81-.22h-18.5v14.4Z"/>
    <path class="cls-5" d="M503.65,404.22v18.22c0,.8.19,1.43.58,1.87.39.44,1.05.78,1.99,1.03v1.29h-17.13v-1.29c.97-.27,1.64-.62,2.01-1.05.38-.43.56-1.05.56-1.85v-46.49c0-.83-.19-1.46-.56-1.89-.38-.43-1.05-.78-2.01-1.05v-1.29h34.35c4.18,0,7.5.24,9.95.72,2.45.48,4.59,1.33,6.41,2.53,2.12,1.39,3.7,3.28,4.75,5.67.99,2.31,1.49,4.77,1.49,7.4,0,8.96-4.97,14.2-14.92,15.73l10.66,15.16c1.88,2.65,3.25,4.36,4.12,5.13.87.76,1.94,1.19,3.2,1.27v1.29h-19.83v-1.29c1.36-.21,2.05-.7,2.05-1.45,0-.48-.63-1.65-1.89-3.5l-11.12-16.17h-14.65ZM503.65,395.17h18.5c2.73,0,4.67-.08,5.79-.24,1.13-.16,2.16-.5,3.1-1.01,2.04-1.1,3.06-3.08,3.06-5.95s-1.02-4.85-3.06-5.95c-.97-.54-1.99-.88-3.08-1.03-1.09-.15-3.02-.22-5.81-.22h-18.5v14.4Z"/>
    <path class="cls-5" d="M595.9,412.63h-24.95l-3.7,7.72c-.51,1.07-.76,1.92-.76,2.53,0,1.18.9,2,2.69,2.45v1.29h-18.16v-1.29c1.07-.21,1.89-.59,2.45-1.13.56-.54,1.21-1.58,1.93-3.14l20.19-42.19c.64-1.34.97-2.41.97-3.22,0-1.23-.78-2.12-2.33-2.65v-1.29h19.47v1.29c-1.58.46-2.37,1.25-2.37,2.37,0,.78.25,1.66.76,2.65l20.91,42.31c.88,1.8,1.66,3.02,2.33,3.68.67.66,1.57,1.09,2.69,1.31v1.29h-20.21v-1.29c1.77-.29,2.66-1.13,2.66-2.49,0-.56-.27-1.39-.8-2.49l-3.77-7.72ZM592.45,405.11l-8.9-19.56-9.05,19.56h17.95Z"/>
    <path class="cls-5" d="M645.57,380.78v41.63c0,.83.19,1.46.56,1.89.38.43,1.05.78,2.01,1.05v1.29h-17.13v-1.29c.97-.27,1.64-.62,2.01-1.05.38-.43.56-1.06.56-1.89v-41.63h-17.05c-.8,0-1.42.18-1.85.55-.43.37-.78,1.04-1.05,2.02h-1.29v-14.2h1.29c.29.98.65,1.65,1.07,2.02.42.37,1.03.55,1.83.55h46.05c.83,0,1.46-.18,1.89-.55.43-.37.78-1.04,1.05-2.02h1.29v14.2h-1.29c-.27-.98-.62-1.65-1.05-2.02-.43-.37-1.06-.55-1.89-.55h-17.01Z"/>
    <path class="cls-5" d="M718.49,402.65h-31.65v19.79c0,.8.19,1.43.58,1.87.39.44,1.05.78,1.99,1.03v1.29h-17.13v-1.29c.97-.27,1.64-.62,2.01-1.05.38-.43.56-1.05.56-1.85v-46.53c0-.8-.19-1.42-.56-1.85-.38-.43-1.05-.78-2.01-1.05v-1.29h17.13v1.29c-.97.24-1.64.58-2.01,1.03-.38.44-.56,1.07-.56,1.87v17.7h31.65v-17.7c0-.8-.19-1.43-.56-1.87-.38-.44-1.05-.78-2.01-1.03v-1.29h17.13v1.29c-.97.27-1.64.62-2.01,1.05-.38.43-.56,1.05-.56,1.85v46.53c0,.8.19,1.42.56,1.85.38.43,1.05.78,2.01,1.05v1.29h-17.13v-1.29c.94-.24,1.6-.58,1.99-1.03.39-.44.58-1.07.58-1.87v-19.79Z"/>
  </g>
  <path class="cls-8" d="M291.25,212.43v67.2c-1.47.15-2.94.31-4.4.47v1.55h-.07v-69.22h4.34s.13-.01.13-.01Z"/>
  <path class="cls-6" d="M286.78,275.45h.07l.24,151.38c-10.27,1.61-15.81.37-31.04.8,0-36.93,1.23-83.96,1.23-120.89-6.39.85-12.87.48-22.39.83v-99.9c17.3-3.94,34.59-5.77,51.89-5.96v73.73Z"/>
  <path class="cls-10" d="M495.91,272.58c-45.44,5.3-46.26,17.61-80.56,19.09-39.28,1.7-84.64-8.34-96.79-2.48-4.33,2.09-6.73,2.63-14.6,7.12-2.77,1.58-2.96,2.23-5.28,3.83-11.45,7.91-9.51,3.45-9.51-1.72l-.05-96.52c0-3.22,1.89,3.27,4.18,1.01,2.63-2.6,4.36-3.33,8.13-6.61,21.8-12.99,51.47-19.19,75.15-17.13,56.02,4.85,96.92,42.3,145.16,16.43,18.52-9.93,34.13-35.2,81.9-22.63,94.25,24.79,108.83,17.24,135.76-4.31,0,0-3.31,64.79-52.95,65.25-55.68.52-51.18-5.52-72.83,4.64-2.78,1.3-4.72,3.12-6.42,4.57-6.77,5.8-10.43,11.51-11.67,13.75-3.22,5.81-12.07,14.63-32.17,16.27-.71.06-1.45.06-2.16.01-19.63-1.27-38.29-3.71-65.31-.56Z"/>
  <path class="cls-10" d="M289.01,200.77s13.26-6.11,18.09-7.98c4.83-1.87,1.82,8.86,1.82,8.86l-10.03,10.09-9.87-10.97Z"/>
  <path class="cls-11" d="M256.35,434.44h473.14c1.48,0,2.68,1.2,2.68,2.68v15.62c0,1.48-1.2,2.68-3.05,2.68H255.98c-1.11,0-2.3-1.2-2.3-2.68v-15.62c0-1.48,1.2-2.68,2.68-2.68Z"/>
  <ellipse class="cls-9" cx="367" cy="206.17" rx=".26" ry=".4"/>
  <g>
    <path class="cls-9" d="M349.59,215.54c-.14-.02-.73-.3-.9-.39-.83-.42-1.54-1.31-2.51-1.22.03-.15.16-.15.28-.16.53-.06,1.07.11,1.57.24.03-.21-.16-.24-.3-.3-.96-.44-2.03-.29-2.99.06l.72-.44c.7-.27,1.35-.32,2.09-.2.05-.19-.04-.13-.1-.18-1.17-.92-3.02-.81-3.99.34-.05-.06.38-.58.44-.64,1.06-1,2.79-.8,4.05-.32-2.15-1.61-5.41-.08-5.22,2.73l-.16-.76c-.13-2.05,1.11-4.34,3.29-4.61.07-.26-.26-.16-.42-.14-1,.16-2,.89-2.51,1.74-.08-.15.16-.44.25-.55.86-1.11,2.4-1.77,3.8-1.45.04-.21-.05-.14-.16-.2-.54-.27-.98-.3-1.57-.29-.19,0-.58.19-.68,0,.9-.27,1.87-.35,2.79-.1.41.11.73.36,1.14.42-.05-.11-.27-.24-.38-.31-1.4-.85-3.06-.66-4.52-.1l.86-.46c1.49-.56,3.15-.43,4.54.32,1.11.6,1.95,1.95,3.38,1.91.16,0,.23.05.2-.16-.49-.05-1.02-.27-1.36-.64.56.19,1.04.44,1.64.48.5.04,1.27.04,1.65-.32-1.8.45-2.72-1.12-3.53-2.41.14-.13.99.96,1.12,1.08.71.65,1.85,1.09,2.81.84-.03-.16-.17-.13-.28-.16-.39-.1-.8-.08-1.08-.44.27-.04.51.15.77.19.33.06.83.09,1.16.05-.21-.23-.54-.2-.8-.32-.31-.14-1.08-.82-1.2-1.13-.02-.04-.02-.13.04-.12l1.04.88c.13-.27-.28-.47-.43-.69-.21-.32-.44-.78-.64-1.13-.04-.07-.18-.2-.06-.26.78.7,1.25,2.04,2.45,2.05l-.32-.36c.3.04.46.4.8.32.02-.28-.23-.41-.34-.67-.4-.96.07-1.72.01-2.49-.03-.38-.33-.8-.32-1.29s.27-.93.33-1.4c-1.12.09-.97-.87-.64-1.61-.41.07-.68.38-1.12.16l.24-.64c-.61.07-1.07-.12-1.44-.6l.32-.08c-1.4-.8-.05-3.17-1.77-3.41.72-.68,1.49-.19,2.23.06.13.04.3-.07.49.06.28.19.4,1.14.49,1.48.11.12.14,0,.16-.12.06-.45-.14-.82-.24-1.24.65.1.77.89.8,1.44.14,0,.15-.27.16-.36.02-.33-.02-.61-.08-.92.25.02.53.38.56.61.09.72-1.05,1.52-1.36,2.12.76-.25,1.13-1.09,1.59-1.66.08-.09.09-.22.26-.18.12.96-.76,1.61-1.12,2.41.15.03.19-.08.28-.16.37-.31,1.61-1.7,2.13-1.41.13.08,0,.19-.05.28-.36.53-1.05,1.02-1.24,1.69l1-.96c.05.17-.2.46-.29.59-.14.18-.31.33-.47.5-.01.06.08.05.12.04.43-.18,1.18-1.06,1.61-1.36.06-.01.05.08.04.12-.06.28-.89,1.08-1.13,1.36-.08.09-.19.13-.16.28.95-.72,1.61-1.72,2.97-1.6l-.75.42c-.32.27-.73.54-1.02.83-.18.17-.81.86-.88,1.05-.04.1.02.16.12.12s1.24-1.3,1.32-1.2c.04.15-.08.19-.16.28-.39.46-.9.83-1.25,1.33-.13.2.16.87.37.59.18-.29-.1-.47-.09-.75.32-.01.32.5.64.48l.1-.46.46-.14c-.05-.23-.35-.65-.12-.84.06.34.13.53.52.48l-.16-.88c.11-.13.76.97.71.2-.01-.26-.39-.4-.11-.6l.12.32.56-.08-.24-.56c.28-.06.29.17.44.32l.2-.28-.16-.36.36.32.12-.24c.52.08-.09.38-.28.56-1.21,1.15-3.04,2.94-4,4.26-.13.18-.32.42-.37.63l5.38-5.34.1-.03.78.47,1.17-1.84c.1.25-.14.63-.27.86-.9,1.58-2.06,2.27-3.27,3.55-.58.62-1.28,1.36-1.56,2.17,1-1.33,2.26-2.45,3.45-3.61-.09.3-.36.61-.56.84-.88,1.03-2.18,1.97-2.48,3.33.05.07.43-.66.49-.75.74-1,1.91-1.7,2.67-2.71.71-.95,1.18-2.12,1.93-3.04.22.11.06.57.13.64h.22s.01.32.01.32l-.4-.12c-.64.71-1.08,1.8-1.69,2.49-.75.86-1.95,1.49-2.4,2.65l.72.68c.08-.4-.47-.37-.48-.72.13-.13.89,1,.88,0h.32s-.08-.32-.08-.32c.12.02.38-.1.4-.2.05-.25-.85-.27-.56-.64.34-.15.52.13.48.44.37.09.35-.17.52-.32.44-.37,1.52-1.2,2.09-1.2h1.48l-1.13.12c-1.17.38-2.13,1.3-2.93,2.21-.33.39-.77.89-.92,1.37,1.18-1.1,3.07-4.01,4.97-3.25.08.03.93.48.8.6-.44-.24-1.66-.12-2.01.2-.21.19.33,1.05.16,1.41.05.05.58-.33.72-.36.73-.19,1.35.12,2.01.36.09-.08-.36-.5-.4-.6-.08-.21.23-.14.24.08.16.07.47.74.6.68.35-.14-.27-.61-.16-.8.74.47.28,1.03.36,1.73.12,1.1,1.46.4,2.04,1.17.33.43,1.19,2.25.53,2.6l-1.2.2c.56.18,1.27-.18,1.26.66,0,.54-.27,1.36-.7,1.71-1.03.83-3-.33-3.29,1.85-.1.74.16,2.03.96,2.28l-.32-1.2c1.29.76,2.55,2.93-.03,2.72s-4.6-1.74-6.62-3.01c-.07-.04-.17-.2-.25-.07,1.03,1.29,2.43,2.41,4.01,2.93l-.24.16c1.82.91,3.6,1.96,4.31,3.99.31.88.36,1.75.51,2.66h.4c.14-.13-.22-1-.22-1.17,0-.11.13-.18.11-.27-.02-.1-.18-.21-.18-.28,0-.05.13-.12.12-.22-.02-.18-.45-1.22-.56-1.45-.14-.3-.46-.47-.39-.85.73.02,1.23.56,1.48,1.2s.29,2.08.95,2.35c.58.24.65-.86.7-1.23-.31-.03-.32.51-.48.61-.46.29-.85-1.45-.95-1.71-.08-.21-.23-.5-.35-.69-.02-.04-.43-.51-.11-.37.18.08.64.66.68.88.23-.08-.16-.56-.08-.64l.4.16c.08-.44-.1-.91-.09-1.32.01-.26.14-.43.16-.65.06-.52,0-1.01-.23-1.48h.16c.57,1.05,1.27,1.97,1.51,3.19.27,1.36.11,2.67-.11,3.95-.06.33-.13.66-.12.99l.48.09-.56.25c.28.77-.79,1.61.51,1.64l.05-.36-.23-.05v-.31s.31.08.31.08l.16-1.85c-.62.06-.62-.35,0-.16.15-.5-.3-.7.16-1.16l-.24-.32.24-.32-.24-.32.23-.17c.1-.27-.15-.41-.15-.55s.15-.24.14-.39c-.07-.84-.55-2.26-.98-3.02-.68-1.21-1.8-2.05-2.81-2.97l.08-.16h2.01c.33,0,1.37.31,1.74.42.26.08,1.88.7,1.97.8.13.16.32,1.06.34,1.3.1,1.17-.12,2.33-.24,3.49h-.23c-.39-1.84-1.04-3.33-2.63-4.4-.11-.07-.2-.2-.34-.18,1.85,1.65,3.3,4.6,2.29,7.06-.12.28-.46.67-.5.86-.11.46.11,1.75.06,2.39-.23,3.02-1.91,4.66-3.09,7.18-.22.47-.38,1.4-.78,1.62-.1.05-.83.32-.89.3-.26-.33-.41-.73-.59-1.1-.17-.34-.38.31-.5.42-.19.18-.62.22-.8.48-2.2-.61-3.89-2.23-5.54-3.73,0,.15.12.28.21.39,1.27,1.65,3.24,2.88,5.17,3.62l-.17.31h-.1c-1.7-.62-3.18-1.49-4.51-2.72-.3-.27-.53-.59-.81-.88-.08-.09-.12-.2-.27-.17l.84,1.13c.84.74,1.65,1.46,2.64,2.02.32.18,1.76.78,1.86.95.04.06.09.22,0,.24-.49-.21-1.01-.3-1.51-.5-1.37-.54-2.73-1.63-3.67-2.75l-.64-.56c.27.4.56.84.89,1.2.84.94,2.56,2.26,3.75,2.67.36.12.76.23,1.14.26l-.08.37c-1.78.03-2,2.32-1.36,3.6.5,1,1.27,1.47,2.42,1.24.52-.11,1.37-.95,1.3-1.51-1.65,2.32-4.51.15-3.45-2.25.18-.4.79-.95,1.25-.68.52.31-.23.68-.33.82-.37.55.09,1.74.72,1.91.84.23,1.91-.82,1.33-1.65l-.28.76c-.64.91-1.87.27-1.57-.77.08-.27.54-.59.59-.85.02-.13-.38-.55-.19-1.15.13-.41,1.1-1,1.51-.86.37.12,1.27,1.87.35,2.01l-.69.27.27.19.42-.2c.57,0,.56,1.65.72,1.65.45-.2.64-.55.68-1.04h-.4s.08.32.08.32h-.24c-.04-.49-.56-1.19,0-1.52l.08,1.01c.73.07.33-.72.48-1.17l-.32.04c.37-.25.66-.29.56-.84-.15-.15-.81.42-.94.47-.29.12-.22-.14.03-.29.18-.1.81-.28.88-.36.09-.09.07-.35.11-.38.14-.12,1.64-.06,1.96-.09,1.78-.15,3.55-.59,5.34-.6.13.09.04.1.02.18-.09.41-.48,1.09-.71,1.46-1.17,1.9-2.98,3.23-5.09,3.94,0,.14.35.09.44.08,1.42-.15,3.13-1.14,4.17-2.09.15-.14.59-.69.65-.72.03-.02.13-.02.12.04-.46.64-1.02,1.17-1.6,1.69-.01.06.08.05.12.04.54-.17,1.8-1.59,2.16-2.09.17-.24.29-.57.49-.8.03.17-.11.46-.19.62-1.06,2.22-2.76,3.8-5.15,4.48-.52.15-1,.21-1.53.32-.09.02-.26,0-.24.12h1.24c.74,0,2.11-.55,2.76-.93,2.39-1.39,3.47-3.71,4.38-6.22.16-.16,1.49.02,1.76.09.09.03.19.03.21.15-.91.5-1.36,1.61-1.77,2.53-.17.39-.38.83-.48,1.24.58-.67.92-1.51,1.41-2.24.56-.82.95-1.54,2.09-1.38.07.01.15.09.45.13,1.15.17,2.34.38,3.28,1.08l-.16.08,1.28.4-.2.16c.52.28,1.15.44,1.49.96l-.4-.04c.44.31.88.61,1.2,1.04l-.32.08c.35.43.66.91.8,1.44l-.4-.28c.27.83.19,1.73,0,2.57-.25.26-.09-.78-.4-.64.04.59-.08,1.34-.48,1.77-.03-.23.11-.6-.16-.72.02.73-.42,1.31-.84,1.85l.08-.72c-.48.58-1,1.33-1.67,1.7-.07.04-.17.13-.22.02.19-.18.42-.44.53-.68.05-.12.08-.19-.09-.17l-1.69,1.52.16-.48c-.29.21-.57.46-.87.66s-.7.52-1.02.5l.24-.24c.01-.06-.08-.05-.12-.04-.51.16-1.17.78-1.73.88l.16-.2c.01-.06-.08-.05-.12-.04-.58.18-1.31.81-1.97.88l.24-.28c.01-.06-.08-.05-.12-.04-.48.15-1.21.65-1.69.8-.04.01-.13.02-.12-.04l.24-.28-1.44.44.16-.2-1.85.56.16-.2c-.31-.02-.69.29-1,.44l-.04-.16c-.24-.13-1.93.94-2.3.96-.15,0-.18-.03-.28-.12-.53-.48-1.33-2.33-1.28-3.04.05-.77,1.42-1.53,1.84-2.14-1.14.03-2.27.2-3.41.16-.49-.02-2.56-.35-2.81-.17-1.94,3.52-4.36,6.68-6.94,9.76-2.99,3.57-9.46,9.93-9.79,14.61-.11,1.58.29,3.76,2.09,4.13-.21.21-.84.3-1.16.32-2.49.17-4.12-1.39-3.97-3.89.31-5.15,7.46-11.28,10.88-14.88,2.87-3.02,5.73-6.16,7.98-9.67.2-.31.45-.66.56-1-1.97,2.75-4.03,5.43-6.34,7.91-3.18,3.42-6.91,6.6-9.87,10.19-2.25,2.73-4.93,6.59-3.21,10.23-.5-.27-.94-.82-1.22-1.31-2.2-3.88,1.71-8.17,4.26-10.77s5.33-4.79,7.87-7.3l-6.3,5.34c-.41-.52-.76-1.03-1.35-1.38-.22-.13-.47-.18-.68-.29-.08-.04-.13.02-.1-.14l4.09-2.61-2.2.97-1.98,1.15c1.79-1.7,4.28-2.4,6.39-3.64,3.16-1.84,5.9-4.65,8.13-7.52l-1.79-.19c-2.3,1.86-4.82,3.46-7.44,4.84-1.38.72-2.74,1.3-4.18,1.84-1.09.41-1.99.38-3.06.63-1.35.31-1.45,1-2.31,1.86-.09.09-.72.66-.77.68-.04.02-.13.02-.12-.04l.4-.48-.12-.12-1.93,1.84-.12-.04c.09-.16.31-.41.2-.6-.42.44-.77,1-1.32,1.28l.24-.44c.01-.06-.08-.05-.12-.04-.28.13-1.08,1.15-1.45,1.36-.27.07.11-.43-.16-.32-.17.07-.89,1.19-1.08,1.04.34-.77.02-.27-.24-.04s-.56.4-.77.68c-.17-.17.44-.55.08-.56l-1.86,1.91c-.9-.28-2.04-1.67-2.17-2.62-.06-.44.34-1.17.53-1.6.15-.33.48-.82.57-1.11.01-.04.02-.13-.04-.12l-.28.24c.2-.71.64-1.34,1.12-1.89l-.32.04c-.07-.11.77-1.1.96-1.25l-.24-.04c-.1-.11,1.11-1.22,1.28-1.32-.09-.17-.51.29-.48,0l1.52-1.29-.2-.12c.41-.47.99-.76,1.57-.96l-.08-.24,1.13-.28v-.2c.73-.14,1.62-.23,2.34-.43,1.22-.33,1.71-1.27,2.59-2.06.49,3.02,3.41,4.19,6.18,4.02,1.6-.1,3.16-.84,4.61-1.45.02-.14-.18-.08-.26-.06-2.56.69-4.58,1.74-7.34.73-1.61-.59-3.71-2.82-2.14-4.44-.11.66,0,1.21.28,1.81,1.04,2.24,4.07,2.78,6.29,2.44l1.33-.31c-1.96.26-4.47.25-6.12-.98-1.09-.81-1.88-2.31-1.14-3.6.34,1.34.77,2.41,2.06,3.08s4.13.56,5.53.25c.66-.15,1.28-.41,1.93-.6.02-.15-.17-.07-.26-.06-.45.05-.93.19-1.38.22-1.76.12-3.82-.04-5.22-1.21-1.1-.92-1.74-2.49-.39-3.52,1.21-.92,3.6-1.8,5.06-2.65,1.15-.67,2.3-1.4,3.32-2.26-1.23.55-2.33,1.36-3.56,1.94-3.63,1.71-12.46,4.6-14.97.09-.56-1.01-.59-2.33-1.71-2.95l-.64-.28c1.05-.17,1.93.36,2.93.48.71.09,1.32.02,2.06.26,1.23.41,1.81,1.71,3.03,2.18,2.37.91,6.9-.41,9.2-1.39.69-.3,1.35-.66,2.03-.98.02-.14-.18-.08-.26-.06-.53.14-1.08.53-1.66.54.15-.15.32-.44.46-.56.72-.61,1.92-.6,2.67-1.2-2.28.88-4.59,1.01-6.98.52-6.34-1.29-9.99-6.67-16.99-2.62-5.82,3.37-10.02,11.13-7.81,17.83-.76-.95-.89-2.23-1.16-3.37,0-.03-.1-.47-.2-.36.14,2.17.86,4.54,2.3,6.22.09.1.25.03.19.25-1.79-1.39-2.93-3.86-3.27-6.08-1.21-8.07,7.16-17.55,15.42-16.87,3.62.3,6.83,3.14,10.25,4.19,1.92.59,4.54.76,6.5.36.46-.09.32-.26.54-.5,1.04-1.14,2.43-1.89,3.45-3.05.95-1.07,1.92-2.56,1.52-4.05l-.16.32-.97-1.92v.6s-1.2-2.05-1.2-2.05l-.08.56-1.05-2.09c-.15-.02-.06.16-.04.24.04.19.14.36.12.56-.79-1.05-1.14-2.53-1.12-3.85-1.69.57-3.41,1.03-5.22,1.04,0-1.45-.18-2.92-.08-4.38.02-.24.05-.63.12-.84.22-.72,1.13-.82,1.49-1.44l-2.17.4.16-.24c-1.07.24-2.11-.03-2.97-.68.27-.09.56.15.82.22.89.24,1.71.21,2.55-.18-.03-.22-.39,0-.44,0-.35,0-.89.05-1.2,0ZM366.16,203.26c-.18-.32-.69-.12-.96-.04-.53.15-.98.46-1.29.92l1.26-.7.99-.18ZM363.43,205.74c-.2-.06-.2.17-.22.3-.06.43-.05.81.1,1.22.03.1.17.37.28.4l-.16-1.93ZM367.04,205.82c-.18-.12-.86.53-.96.72l1.05-.04-.09-.68ZM369.93,207.67c.03-.16-.1-.23-.21-.31-.55-.38-1.56-.31-1.99-1.06l.04.56c-.41.4-2.25-.2-2.25.45,0,.41,1.48.83,1.81,1l-.05.73c.24-.22.37-.56.6-.8.54-.58,1.28-.76,2.05-.56ZM362.07,209.03c.8-1.74-1.78-3.15-2.74-1.5-.8,1.37.62,2.78,1.54,3.64-.32.46-.64.59-.56,1.23l-.16-.08v.48s.4,0,.4,0c-.02.16-.32.08-.24.36.03.09.18.15.28.12.07-.36.37.02.56.16.08.06.24.07.26.1.06.07-.02.31.14.38l.12-.32h.32s.05.4.05.4l.4-.16-.05-.4.16.23h.4s-.08-.47-.08-.47l.4.08-.16-.48.24.08c.05-.36.07-.73-.07-1.09-.07-.17-.3-.35-.32-.49-.01-.13.24-.28.29-.48.06-.26.06-.81-.3-.83.34,1.1-.71.94-1.4.63-.76-.34-1.15-1.21-1.25-2-.46.38-.15.92,0,1.36-.83-.56-1.19-2.26-.02-2.63.67-.21,1.34.23,1.6.84l.18.83ZM361.34,213.93c.17-.17-.54-.67-.64-.56v.31s.64.25.64.25ZM360.06,216.26c.16-.15-.9-.83-1-.88-2.28-1.21-5.02-.29-6.22,1.93l1.26-.87c1.47-.89,3.53-1.1,5.16-.53.29.1.52.28.81.36ZM368.62,217.52c-.56.68-2.99-.22-3.7-.55l-2.14-1.19.44.48c1.12.9,3.38,1.91,4.82,1.93.92.01,1.23-.68.8-1.45-.06-.11,0-.2-.2-.16-.05.06.23.64-.02.94ZM371.46,230.46c-.6-.15-1.19.28-1.49-.64-.17-.53-.34-1.6-.4-2.16-.02-.18.07-.34.04-.52l-.31-.13c-.02-.15.21-.05.29-.15.15-.2-.07-.4-.09-.53-.27-1.99.04-3.43-1.26-5.28-1.15-1.65-2.83-1.91-4.43-2.88-.79-.48-1.46-1.15-2.22-1.67-.07.08.3.45.36.57s.02.29.09.4c.09.15.39.13.43.17.05.06-.02.28.09.35l.41.07.07.36.48-.16c-.06.38.57.88.88.56l.08.37c.52-.17.46.19.58.27.05.03.19-.08.27-.07.09.02.09.18.14.21.07.05.21,0,.28.04.05.03.06.19.14.21.1.02.22-.11.34-.06.02.01.28.39.34.43.13.07.29,0,.38.06.08.05,1.06,1.13,1.16,1.29.42.65.47,1.31.66,1.99.03.11.18.21.19.29.01.1-.15.18-.14.29,0,.08.12.17.13.26.02.22-.24.55.18.59.04.05-.42.28-.17.61.07.08.23.1.25.11.07.06-.2.09-.24.28-.01.06-.01.25.01.28h.23c-.29.53-.06,1.14-.16,1.72l.4.13-.32.36.17.32-.17.08v.15s.33.21.33.21c-.13.21-.27.3-.16.56l.48-.08-.31.34c.15.32.39.23.23.62l.48-.08c-.17.21-.28.51-.04.72l.32-.16.31.31c.29-.14.34-.36.7-.27.19-.32.11-.49,0-.77.23.06.4.32.48-.04l-.64-.36c-.05.19.11.28.16.4ZM370.58,223.8c-.09,1.08.91,2.26,1.65.89.65-1.21.34-3.45-.12-4.7-.14-.38-.38-.82-.6-1.16-.11.69.32,1.35.48,2.01.19.78.38,2.84-.04,3.49-.08.13-.35.38-.51.43-.21,0-.54-.6-.66-.79-.06-.09.02-.21-.2-.16ZM366.4,225.89c-.03-.16-.17-.13-.28-.16-.53-.14-1.05-.21-1.56-.44-1.18-.53-2.23-1.66-2.85-2.77.09.87.86,1.85,1.52,2.41.44.37,1.44.96,2.01.96h1.16ZM366.47,223.25l-.5.06c-.42.49.35,1.09.74.61l-.24-.67ZM370,225.18h-.39c-.1.21.11.48.12.59.09,1.4,0,2.82.5,4.2.05.14.08.28.27.25-.1-.57-.26-1.14-.32-1.73-.06-.65-.09-1.44-.13-2.1-.01-.22.11-1.13-.04-1.22ZM372.42,228.7c.05,0,.22.01.24,0l.08-.56-.59-.16-.12.35c.06.17.3.15.38.23.04.04,0,.12.02.14-.17-.02-.39-.29-.52-.08-.15.3.05.3.2.48-.43-.05-.46.12-.24.48-.11-.02-.21-.08-.32-.08l-.07.35.51.36.19-.25c-.1-.14-.22-.22-.31-.37.16.03.31.11.48.08.08-.38-.06-.35-.24-.56.14.02.27.05.4.08.11-.27.04-.28-.08-.48ZM363.75,237.2c.03-.16-.11-.23-.2-.32-.32-.31-.87-.56-1.23-.85-.69-.55-1.22-1.19-1.85-1.8l.72,1.08c.72.89,1.57,1.38,2.57,1.89ZM365.79,243.67c-.32-.21-1.01-.94-1.12-1.33-.13-.49.08-2.09-.07-2.33-.1-.14-.26.01-.4,0-.66-.08-1.34-.59-1.61-1.2-.12-.27-.22-1.01-.32-1.12-.05-.06-1.07-.38-1.45-.72-.53-.48-.48-.9-.8-1.36-.13-.19-.42-.33-.6-.52-.16-.17-.23-.39-.4-.52-.14.65.39.76.63,1.09.17.23.16.53.27.77.39.83,1.13,1.31,1.99,1.54.12.64.22,1.16.67,1.65.47.53,1.01.7,1.69.8.12.48-.07.92-.05,1.41.08,2.33,3.09,4.07,4.02,1.24-.49.3-.91.88-1.52.84l.24-.36c-.35-.05-.52.04-.56.4-.24-.02-.42-.15-.61-.27ZM360.62,235.12c.01-.21-.74-.55-.72-.28.01.16.55.35.72.28ZM361.61,236.5c.1-.06.29.01.38-.14-.11-.21-.38-.17-.53-.28-.18-.13-.35-.75-.72-.81-.45.5.23.58.27.65.06.1-.04.33.03.45.02.03.38.2.42.34.06,0,.08-.18.14-.22ZM362.05,236.57c-.14.02-.28.17-.38.27.77.81.96-.36.38-.27ZM362.93,236.98c-.09-.08-.26-.11-.38-.1-.15.43-.03.53.16.88.39-.03.48-.54.22-.78ZM365.84,238.01l-.5-.02-2.23-.94c0,.38.67.42.78.7.03.08.12.64.1.66-.59.2-.26-.72-.52-.8-.38-.12-.38.82-.3,1.02.62,1.61,2.04.15,2.67-.62ZM369.03,238.71c.21-.37-.17-1.34-.62-1.48-.41-.12-1.13.39-1.25.77-.09.29-.04.92.36.97-.13-.42-.24-.66.01-1.07.44-.72,1.26-.43,1.26.39,0,.29-.25.49-.31.76.04.04.53-.31.54-.34ZM367.93,238.89c.33.22.82-.96.24-1.08-.47-.1-.48.81-.24,1.08ZM370.74,240.37c.08-.58-.06-1.33,0-1.93l-.16-.08c-.31.99.18,2.62-1.04,3.13-.16.07-.49-.02-.49.24,0,.5.78.15,1.01-.04.26-.21.64-1,.68-1.33ZM368.54,241.35c-.15.14-.86.48-1.07.5-.96.09-1.53-1.06-1.48-1.88.04-.63.72-.57.73-.72-.26-.31-.66,0-.79.25-.52,1.02.48,2.93,1.74,2.62.27-.07,1.24-.69,1.34-.91.11-.24.11-1.61-.24-1.68l-.2.12c.28.46.41,1.3-.02,1.7ZM358.54,239.21l-3.51,2.23-2.59,1.38c2.3-.55,4.43-1.98,6.1-3.61ZM368.17,240.25c.1-.49-.23-1.2-.81-1.01-.26.09-.48.48-.16.32.2-.1.3-.17.56-.12.02.26-.47.3-.63.41-.07.92.56.39,1.03.39ZM356.61,245.31c2.06-.12,4.17-1.34,5.54-2.85.25-.27.62-.66.72-1.01-1.21,1.17-2.53,2.21-4.04,2.98l-2.22.87ZM383.34,243.78c-.5-.39-1.49-.66-2.13-.72-1.21-.1-2.72.4-3.7,1.11-.1.07-.22.08-.19.26,1.9-.84,3.98-.97,6.02-.64ZM364.99,244.88c-.38-.38-.5-.95-.71-1.42-.3.52-.64,1.08-.76,1.68.17-.04.54-1.04.72-.88.27,1.17,1.3,2.08,2.41,1.16.11-.09.73-.76.64-.84-.29.08-.46.37-.75.5-.55.25-1.11.24-1.55-.2ZM356.85,243.95l-3.69.8c.95.15,2.08-.08,2.99-.42.21-.08.56-.21.7-.38Z"/>
    <path class="cls-9" d="M401.39,234.11c-.04-.35-.25-.85-.3-1.23l-.26-.58c.39,2.2.08,4.31-1.4,6.02-.04.05-.21.27-.28.2.8-1.27,1.07-2.81.92-4.29-.22.56-.21,1.19-.38,1.78-.49,1.67-1.75,3.22-3.35,3.91,1.32-1.13,2.21-2.89,2.4-4.62.58-5.43-3.56-9.14-8.92-7.71l-.7.3c3.46-.72,7.13-.15,8.73,3.35s-.17,8.03-3.91,9.05c-.12.03-.59.19-.64.04,2.34-.64,4.18-2.84,4.57-5.22l-.82,1.63c-1.07,1.7-2.9,2.63-4.88,2.78l1.8-1.04c3.84-3.32,2.2-9.14-2.9-9.86-6.18-.87-10.83,5.02-15.66,7.75-.3-.04-4.03.75-4.03.54,3.44-1.63,6.22-4.33,9.32-6.5,4.51-3.15,10.47-6.34,16.07-4.12,3.74,1.49,6.01,5.71,4.63,9.61-.21-.02,0-.31,0-.36,0-.45.05-1.01,0-1.44Z"/>
    <path class="cls-9" d="M349.15,217.14c-.51,1.73-.5,3.58-.18,5.36l-.11.18c-1.2,0-2.6-.59-3.76-.48-.87.08-1.77.65-2.64.81l-.09-.17-.88.25c-.51-.14-1.1.06-1.61.08-1.72.07-3.47-.47-5.13-.56-.73-.04-1.37.11-2.08.24-.29-.3-1.2-2.01-1.01-2.31.57-.28,1.11-.54,1.75-.65l-.08-.16c.17-.02.43-.03.59-.1,1.29-.63,2.64-1.17,4.07-1.63,1.97-.63,4.06-1.2,6.14-.53.48.16.9.49,1.44.49.51,0,3.43-.95,3.57-.81Z"/>
    <path class="cls-9" d="M380.49,194.51c2.74.26,4.94,2.71,4.69,5.5-.02.2-.2,1.12-.28,1.24-.08.13-.61.3-.79.42-.48.31-1.07,1-1.27,1.54-.1.27-.12.76-.27.94-.13.15-.97.56-1.2.65-2.44.9-5.05-.14-6.26-2.41-.82-1.53-.74-3.37-.92-5.06-.21.23-1.06.93-1.12.28-.04-.42,2.07-3.22,2.37-3.22.97.55-.44,1.57-.68,2.22.17.04.18-.09.26-.18.28-.33.61-.93,1.02-1.06,2.75-.89,5.69-.6,7.67,1.65.27.31.46.7.76.96-.66-1.77-2.55-3.03-4.38-3.28-.24-.03-.49.02-.71,0-.15-.02-.13.03-.12-.16.4.03.85-.04,1.24,0ZM380.21,197c-.1-.17-.38-.29-.56-.36-.55-.2-1.71-.4-2.29-.37-.14,0-.27,0-.36.13,1.1.1,2.17.24,3.21.6ZM381.89,199.8c-.37-2.12-2.75-2.99-4.65-3.13-.04.23.07.13.18.18,1.31.64,2.73,1.14,3.84,2.1l.64.85ZM381.73,200.53c-.63-2.13-3.26-2.96-5.14-3.69.39.41.94.79,1.42,1.11,1.27.85,2.82,1.35,3.72,2.58ZM381.33,200.61l-.62-.79-4.6-2.82c.77.81,1.67,1.57,2.65,2.13.86.49,1.85.77,2.57,1.48ZM380.85,200.61c.04-.17-.09-.18-.19-.25-.55-.4-1.24-.52-1.85-.8l-2.3-1.51c-.04.16.08.19.17.27.42.41,1,.94,1.49,1.24.83.5,1.79.67,2.67,1.06ZM380.29,200.93c-.62-.57-1.57-.56-2.3-.95l-1.23-.9c.84,1.14,2.2,1.57,3.53,1.84ZM378.12,204.14c-.31-.37-.87-.58-1.24-.88-.5-.4-1.1-1.14-1.45-1.67-.24-.37-.39-.8-.67-1.13.47,1.67,1.73,3.1,3.37,3.69Z"/>
    <path class="cls-9" d="M389.35,217.94c-.23.24-.01-.48-.24-.4l-.72,1.41-.12-.2c-.1.04-.61.87-.8,1.05-.18.16-.33.08-.46.15-.11.06-.37.43-.58.48l-.08-.24c-.92.97-2.22.57-3.35.82-.95.21-2,.77-3,1.02-.3.07-2.17.44-2.28.33.27-1.9.51-3.76-.4-5.54,1.33-.17,3.29.85,4.41-.04.24-.19,1.65-1.81,1.85-1.65l-.04.24c.49-.3,1.19-1.08,1.69-1.28.05-.02.14-.01.12.04l-.24.36s.08.01.12,0c.16-.06,1.52-1.1,1.76-1.29.21-.16.35-.4.58-.55l2.91,1.16-1.12,4.12Z"/>
    <path class="cls-9" d="M330.73,256.71c-1.62-.19-2.76-1.5-3.5-2.84-1.59-2.84-1.53-6.65-.51-9.68,1.58-4.68,6.67-10.17,11.87-10.44.11,0,.5-.06.53.08h-.51c-4.04.64-7.03,5.33-8.44,8.83-1.63,4.05-2.35,10.39,1.24,13.6.17.15.5.22.48.44-.37-.03-.8.04-1.16,0Z"/>
    <path class="cls-9" d="M350.35,236.32c-.25.02-.48-.06-.72-.12-.53-.14-2-.55-2.4-.81-.27-.17-.93-1.13-1.24-1.45-2.87-3.01-6.37-4.72-10.6-3.47-2.93.86-4.08,3.24-6.47,4.85l-1.85,1.77c1.08-4.34,4.38-7.8,8.83-8.67,5.97-1.16,10.27,1.95,13.6,6.55.1.14.91,1.3.85,1.36Z"/>
    <path class="cls-9" d="M326.19,271.96l.05.4c-.71.59-.89-.59-1.02-.71-.17-.14-.81.11-.31-.66-.84-.26-.46-.94.32-.92,0-.07-.62.05-.71-.42-.07-.38.35-.45.38-.63.02-.13-.18-.21-.08-.47.21-.56.81-.44.93-.6.09-.11.11-.58.18-.78.57-1.52,2.71-1.22,2.83-3.6.02-.49-.13-.92-.07-1.43.11-1.01.86-1.65,1.88-1.57s.8.74,1.13,1.52c.29.69.7,1.15,1.24,1.65.23.21.79.45.69.76-.08.24-.83,1.38-1.02,1.63-1.08,1.42-2.71,2.14-4.04,3.26-.29.25-1.62,1.68-1.81,1.97-.17.27-.14.81-.56.6Z"/>
    <path class="cls-9" d="M367.26,257.4c-1.25,1.25-2.9,1.82-4.03,3.08-.42.47-.38.94-1.24.64-.11-.44.38-.5.56-.8-.19-.02-.62.34-.68.48-.11.25.13.65-.17.71-.33.06-.51-.5-.51-.75-.02-.99.95-1.45,1.21-2.24.01-.04.02-.13-.04-.12l-.44.4c.02-.44.05-.91.27-1.3.47-.83,1.68-1.06,2.33-1.92.97-1.29.39-2.95.53-4.45s1.71-1.93,2.92-1.31c.78.4.56.88.74,1.58.08.31.18.69.31.97s.83,1.23.84,1.33c.02.21-1.09,1.86-1.3,2.15-.36.49-.88,1.13-1.3,1.55ZM365.68,250.29c-.12-.15-.17.11-.2.16-.19.32-.38.86-.36,1.24l.8,3.09c-.01-.34.19-.65.16-.99-.08-.92-.78-1.84-.6-2.86.02-.14.23-.61.2-.64Z"/>
    <path class="cls-9" d="M389.84,208.07c.11-.02.2-.25.25-.35.21-.42.77-1.8,1.25-1.89.41-.08.82.33.74.75s-1.31,1.46-1.2,2.13l.96-1.48c1.13-1.46,1.69.77,1.52,1.72-.38-.26-.62-.36-.6-.88-.6.45-.77,1.73-1.65,1.61-.05.26.37.13.62.22.35.13.69.62,1.07.74-.4.37-.96,1.03-1.53.93-2.14-.39-3.83-1.49-4.24-3.71-.07-.38-.28-1.27.07-1.51.17-.12,1.45-.34,1.72-.36,1.4-.1.84.74.01,1.14-.38.18-.81.08-.56.69.13.31.66.59.98.66l-.88-.92c.26-.18.57-.18.86-.34.32-.19.68-.63.67-1.02,0-.31-.34-.37-.19-.74.35-.82,1.28-.24,1.21.24-.03.23-.7,1.28-.86,1.64-.1.23-.23.5-.25.75Z"/>
    <path class="cls-9" d="M326.11,220.75c-.06.14-.48.09-.61.08-.81-.04-1.65-.27-2.4-.57-.24,0-.08.09.02.14,1.87.96,4.12.36,6.11.43.18.93.67,1.74,1.04,2.59-.03.17-1.14,1.07-1.36,1.21-.95.59-2.2.69-2.87,1.7l-.29.83c-.56-.4-.49-1.07-.17-1.62.27-.47,1.35-1.16,1-1.78-.31-.55-2.77-1.41-3.46-1.76-.93-.47-1.96-1.03-1.91-2.22l1.17.95.35.09c-.48-.45-1.16-.72-1.04-1.52.11.05.5.69.64.56-.24-.28-.45-.61-.39-.99l.19-.13c.39.37.73.82,1.24,1.04.04-.05-.52-1.06-.12-1.28.75,1.02,1.63,1.83,2.85,2.25Z"/>
    <path class="cls-9" d="M348.42,243.22l-3.17,1.21c-2.1.68-6.59,1.97-8.41.4-.67-.58-.94-1.82-1.86-2.09l-.69-.16c1.21-.54,3.33-1.48,4.57-.68.33.21.62.7.89.95,2.17,1.98,6.09.85,8.66.37Z"/>
    <path class="cls-9" d="M398.65,212.98c.01.48-.59.75-.47,1.27.41-.41.65-.99,1.26-1.19.42.16.09.78-.07,1.06-.4.7-.63.6-1.38.69l-.12-.13c-.03-.3.05-.61-.21-.83l-5.74-4.06c-.23-.25.48-.85.6-1.08l6.13,4.26Z"/>
    <path class="cls-9" d="M352.92,239.05l-2.75.71c-.82-.81-1.54-1.75-2.52-2.38l-5.8-2.9c3.42,1.11,6.49,3.38,10.22,3.47.2.12.97.94.86,1.11Z"/>
    <path class="cls-9" d="M399.98,217.03c-.65-.62-.52-1.73.01-2.38,1.23-1.5,3.46-.19,2.81,1.69-.38,1.11-1.96,1.52-2.82.69ZM401.85,216.24c.1-.09.19-.44.19-.58,0-1.15-1.63-1.06-1.61.04.21-.13.25-.46.51-.57.3-.12.72-.17.77.25-1.47-.09-.5,1.46.14.86Z"/>
    <path class="cls-9" d="M335.1,234.16l-1.07.58c-5.76,3.54-9.67,10.19-7.98,17.1.15.62.46,1.11.66,1.67.03.08.11.26-.04.24-.27-.61-.58-1.2-.76-1.84-1.84-6.33,1.49-12.77,6.64-16.39.77-.54,1.64-1.11,2.55-1.35Z"/>
    <path class="cls-9" d="M374.03,194.27l-.16-.2c.12-.11.32.11.48.16s.56-.03.48.16c-.31.31-2,2.98-2.2,2.93-.34-.09,0-.63-.05-.82-.03-.13-.29-.28-.38-.43-.36-.61.04-1.44-.25-2.11.27-.04.46.27.7.3.35.04.96-.19,1.39.02Z"/>
    <path class="cls-9" d="M383.52,204.76c-.32-.65.37-1.7.92-2.05.36-.24.79-.22,1.07-.49-.92-.38-1.91.73-2.11,1.54-.09.35-.02.6-.05.91-.06.54-.43.25-.48-.17-.14-1.11,1.13-2.82,2.28-2.85.44-.01.62.07.61.53-.02.53-.76,1.12-1.08,1.57-.3.41-.51,1.37-1.15,1.02Z"/>
    <path class="cls-9" d="M350.03,222.68l-.16-.05c-.1-.71-.19-1.44-.16-2.16s.12-1.99.27-2.7c.04-.21.1-.59.3-.7-.49,1.77.14,3.55.25,5.34l-.13.28-.24-.24-.12.24Z"/>
    <path class="cls-9" d="M387.08,203.76c.18-.02.37.17.4.34-.36.57-.99,1.78-1.72,1.87-.22.03-.36.02-.33-.25.05-.49,1.15-1.92,1.65-1.97Z"/>
    <path class="cls-9" d="M376.91,222.27l-.24-.04c-.18-.24-.22-1.83-.15-2.16.04-.2.21-.2.24-.56.08-.75-.09-1.41-.24-2.13l.4.85c.28,1.33.39,2.73,0,4.05Z"/>
    <path class="cls-9" d="M376.35,222.12c-.1.13-.15,0-.16-.12-.03-.26.02-.57,0-.84l-.28.88-.2.08c.07-1.75.61-3.41,0-5.14l.42.98c.03.29.22.81.22,1.07v3.09Z"/>
    <path class="cls-9" d="M350.3,261.47c-.24.3-.52.56-.83.77.29-1.03-.17-2.01-.96-2.65.59.07,1.98.96,2.01,1.57.01.26-.13.2-.21.3Z"/>
    <path class="cls-9" d="M350.75,222.68c-.13-1.06-.3-2.18-.24-3.25.02-.49.12-1.53.27-1.98.04-.12.08-.27.22-.3-.21.74-.2,1.6-.16,2.37.05.95.28,1.92.17,2.89-.02.16-.04.3-.24.28Z"/>
    <path class="cls-9" d="M331.89,260.64c.44,1.45,1.3,2.49,2.49,3.37-1.61-.13-2.48-1.82-2.64-3.26-.02-.16.01-.12.15-.11Z"/>
    <path class="cls-9" d="M349.55,222.68c-.21.24-.38-.77-.39-.85-.24-1.48-.07-3.2.43-4.61.01.53-.17,1.04-.2,1.56-.08,1.3.28,2.59.16,3.9Z"/>
    <path class="cls-9" d="M388.15,205.82c.07-.55.32-1.5,1-1.45.37.03.54.24.53.6-.02.82-.96.6-1.53.85Z"/>
    <path class="cls-9" d="M369.13,249.96c.11.98.47,1.87.92,2.73.15.29.45.54.44.88-.13.13-.56-.35-.64-.44-.61-.74-1.01-2.1-.88-3.05.01-.11.06-.25.16-.12Z"/>
    <path class="cls-9" d="M334.94,263.45l-.04.16c-1.48-.3-2.51-1.85-2.61-3.29l1.12,1.88c.45.48.94.93,1.52,1.25Z"/>
    <path class="cls-9" d="M391.04,213.21l-.2.25c-.44.05-2.16-.57-2.56-.82-.09-.06-.55-.45-.45-.55l3.21,1.12Z"/>
    <path class="cls-9" d="M386.79,205.98c-.08-.5.79-1.77,1.29-1.17.12.15-.05.9-.2,1.02-.13.1-1.03.22-1.09.15Z"/>
    <path class="cls-9" d="M377.32,222.36l-.08-.68c.15-1.44.32-2.89-.16-4.29.11,0,.16.23.2.32.53,1.46.61,3.19.04,4.65Z"/>
    <path class="cls-9" d="M332.93,260c.46,1.29,1.29,2.28,2.41,3.05-.36.07-.59-.11-.88-.29-.75-.47-1.26-1.25-1.53-2.08-.02-.07-.29-.97,0-.68Z"/>
    <path class="cls-9" d="M371.14,253.26c-.14.13-.56-.34-.64-.44-.56-.69-.91-1.94-.96-2.82,0-.15-.02-.25.12-.35.12.62.31,1.26.56,1.84.26.61.67,1.15.92,1.77Z"/>
    <path class="cls-9" d="M391.28,212.57v.24c-.09.15-1.36-.22-1.58-.3-.54-.18-1.33-.49-1.62-.99l3.21,1.05Z"/>
    <path class="cls-9" d="M370.49,220.51l-.04-.72c.18.27.25.73.16,1.04-1.01-.78-2.25-1.09-3.41-1.57-.33-.14-.77-.29-1.04-.52,1.49.44,3.07.84,4.33,1.76Z"/>
    <path class="cls-9" d="M371.7,252.93c-.08.09-.58-.44-.64-.52-.5-.63-.92-1.86-.96-2.66,0-.15-.02-.25.12-.35.14.48.22.97.4,1.44.12.3,1.16,2,1.08,2.09Z"/>
    <path class="cls-9" d="M384.38,205.02c.14-.93.85-1.72,1.68-2.09.02.13-.03.24-.09.35-.08.15-1.22,1.6-1.31,1.66-.1.06-.16.1-.28.08Z"/>
    <path class="cls-9" d="M331.57,223.24c-.37.4-1.52-2.3-1.28-2.65.25.18.43.61.58.91.11.22.79,1.65.71,1.74Z"/>
    <path class="cls-9" d="M329.48,260.4c-.05.15-.27.17-.39.29-.98.97-.38,2.29-.53,3.48l-.35-1.49c-.13-.96.19-2.13,1.27-2.28Z"/>
    <path class="cls-9" d="M391.52,212.16c-.64.01-1.41-.2-2-.44-.11-.04-1.24-.56-1.04-.76.64.24,1.31.42,1.95.66.35.14.85.28,1.1.54Z"/>
    <path class="cls-9" d="M331.09,220.51c.25.77.88,1.53,1.14,2.27.11.31-.2.21-.37.05-.32-.31-.93-1.76-.93-2.2,0-.16,0-.13.16-.12Z"/>
    <path class="cls-9" d="M368.41,219.07c-.02-.14.19-.09.28-.08.5.04,1.28.35,1.4-.37v-1.16c.16.59.49.98.21,1.61-.39.86-1.24.07-1.89,0Z"/>
    <path class="cls-9" d="M330.93,223.4c-.2.21-.75-.85-.82-.99-.2-.43-.37-.88-.41-1.35-.01-.13-.12-.19.07-.3l1.16,2.65Z"/>
    <path class="cls-9" d="M366.96,203.02c-.4-.09-.57-.53-.65-.88l-.56.16c-.07-.28.01-1.08.43-.96.16.05.67,1.42.77,1.68Z"/>
    <path class="cls-9" d="M349.23,248.36c-1.01-.37-1.62-1.19-1.82-2.23-.05-.27-.18-.78.02-.98.11,1.37.74,2.38,1.81,3.21Z"/>
    <path class="cls-9" d="M386.79,203.34l-.56.52-1,1.4c-.58-.27.83-1.74,1.17-1.88.13-.05.26-.06.4-.04Z"/>
    <path class="cls-9" d="M400.27,213.85l-.13.31-.87,1.21c-.58-.41.88-1.65,1-1.52Z"/>
    <path class="cls-9" d="M370.25,237.04l-.85.32-.19-.2c-.04-.18.09-.1.2-.12.27-.03.55,0,.8-.16l.04.16Z"/>
    <path class="cls-9" d="M362.31,210.96l-.16.48c.78.16.81,1.28.08,1.57-1.34.53-1.91-1.47-.48-1.65l-.08-.4h.64Z"/>
    <path class="cls-9" d="M363.91,238.73c-.26-.28.47.05.56-.21.1-.33-.31-.39-.31-.67l.8.45c-.06.33-.81.67-1.04.43Z"/>
    <path class="cls-9" d="M401.79,215.62c.23.37-.47.55-.55.27-.09-.33.45-.44.55-.27Z"/>
  </g>
  <path class="cls-2" d="M790.55,344.13c2.84.99,2.42,5.07-.45,5.28-2.53.19-4.12-2.42-2.67-4.39.65-.88,2.05-1.27,3.12-.89Z"/>
  <g>
    <path class="cls-7" d="M283.99,434.44h23.23c0,3.38-2.75,6.13-6.13,6.13h-10.98c-3.38,0-6.13-2.75-6.13-6.13h0Z"/>
    <path class="cls-7" d="M366.46,434.44h23.23c0,3.38-2.75,6.13-6.13,6.13h-10.98c-3.38,0-6.13-2.75-6.13-6.13h0Z"/>
    <path class="cls-7" d="M403.74,434.44h23.23c0,3.38-2.75,6.13-6.13,6.13h-10.98c-3.38,0-6.13-2.75-6.13-6.13h0Z"/>
    <path class="cls-7" d="M441.01,434.44h23.23c0,3.38-2.75,6.13-6.13,6.13h-10.98c-3.38,0-6.13-2.75-6.13-6.13h0Z"/>
    <path class="cls-7" d="M478.29,434.44h23.23c0,3.38-2.75,6.13-6.13,6.13h-10.98c-3.38,0-6.13-2.75-6.13-6.13h0Z"/>
    <path class="cls-7" d="M520.42,434.44h23.23c0,3.38-2.75,6.13-6.13,6.13h-10.98c-3.38,0-6.13-2.75-6.13-6.13h0Z"/>
    <path class="cls-7" d="M562.55,434.44h23.23c0,3.38-2.75,6.13-6.13,6.13h-10.98c-3.38,0-6.13-2.75-6.13-6.13h0Z"/>
    <path class="cls-7" d="M604.67,434.44h23.23c0,3.38-2.75,6.13-6.13,6.13h-10.98c-3.38,0-6.13-2.75-6.13-6.13h0Z"/>
  </g>
  <line class="cls-4" x1="653.07" y1="434.44" x2="653.07" y2="455.41"/>
  <line class="cls-4" x1="659.01" y1="434.44" x2="659.01" y2="455.41"/>
  <line class="cls-4" x1="665.01" y1="434.44" x2="665.01" y2="455.41"/>
  <line class="cls-3" x1="672.64" y1="434.44" x2="672.64" y2="455.41"/>
  <line class="cls-4" x1="332.79" y1="434.44" x2="332.79" y2="455.41"/>
  <path class="cls-7" d="M700.92,493.26c1.07-.49,2.37-2.69,3.49-3.46l-7.64,1.03c.64-1.3,3.01-1.12,4.35-2.06.46-.32,2.04-2.68,1.91-2.79-1.67-.08-2.33,1.56-3.97,1.94-4.67,1.06-7.01-1.02-10.36-1.24-1.45-.08-3.08.88-4.02.63-.82-.22-.93-1.62-1.6-2.06-2.26-1.49-4.5.38-6.27-.45-3.14-1.45-5.17-9.13-5.06-12.35.04-1.55,2.12-11.74,3.39-17.04h-4.98c-1.91,4.43-6.08,11.6-7.75,12.55-3.09,1.74-8.31-.22-7.33,6.2-6.98-1.3-10.13,6.22-16.69,5.58l4.17,1.38-2.08,2.08h4.17s-4.17,3.47-4.17,3.47c3.83,1.14,4.93-3.25,8.34-3.46-1.49,1.97-2.5,3.61-2.08,6.25l3.46-3.47c0,2.37-.5,5.6,2.09,6.94.1-1.88-1.88-6.36,1.39-6.25.08,2.17-.6,6.33,2.77,5.55-3.78-5.1.38-8.22,1.77-12.48.4-1.25.13-3.75.42-4.1.21-.25,1.83-.1,2.73-1.09.96-1.06.91-3.26,1.74-4.52l7.93-9.77c.17,5.69-2.9,11.88-1.77,17.41.93,4.59,3.95,6.2,6.64,9.33,2.33,2.7,1.63,6.01,6.94,3.82-.17,7.22,9.12,6.16,9.4,13.22l-.35-4.87c3.04-.43,2.3,4.31,4.87,4.15l-2.77-5.55,5.55,2.77-3.47-4.15c2.72-.01,5.67.53,7.64-1.76l-7.64-.35c.67-1.44,3.16-.28,4.85-1.05Z"/>
  <g>
    <path class="cls-9" d="M463.89,229.86h-4.03v11.46l1.74,1.74c-.41.19-.78-.12-1.1-.31-.85-.51-2.47-2-2.87-2.89-.57-1.24-.27-2.61-.27-3.91h-2.45s-.37.13-.39.18c-.05,1.45.4,3.64.04,5.02-.23.86-.79.76-1.44.39-1.38-.77-3.86-3.52-4.03-5.11-.18-1.77,1.44-2.43,2.93-2.54v-4.02h-5.45c.1.81-.09,1.66-.11,2.44-.1,3.16.16,6.3.12,9.45l1.52,1.63c.02.19,0,.17-.16.17-1.21,0-4.19-2.93-3.87-4.4l-.1-9.29h-4.14l1.07,1.49c1.26,2.65-.79,5.83-3.69,5.96.91,1.69,1.35,3.68,2.48,5.24,1.33,1.83,4.77,2.54,6.95,2.42.9-.05,1.79-.36,2.67-.4l2.28,2.08c.05.25-.11.13-.26.17-5.66,1.54-11.52-2.16-14.39-6.87-.36-.59-1.31-3.02-1.51-3.22-.22-.22-1.03-.63-1.39-.95-.32-.29-1.6-1.58-1.51-1.94.28-1.14,2.38.85,2.77,1.12,2.35-.4,3.69-2.6,3.43-4.89-.76-.11-1.18.32-1.68.77-.3,0-1.1-.87-1.45-.96-.66-.17-1.6.12-2.3-.1-.76-.24-1.77-1.62-2.31-2.21h30.56c.11,0,1.26.93,1.42,1.08l.92,1.2ZM457.36,229.86h-2.83v3.75l.27.16c.7-.13,1.69.33,2.31.3.13,0,.17-.04.25-.14v-4.07ZM452.13,237.14c-.65.43-.73,1.59-.27,2.17.06,0,.27-.43.27-.49v-1.68Z"/>
    <path class="cls-9" d="M472.24,246.81c-1.72-.92-3.84-2.79-4.03-4.84-.36-4.01-.05-8.46,0-12.49.03-2.08.3-4.01-1.42-5.49.08-.07,1.01.66,1.14.76,3.17,2.6,2.83,4,2.79,7.88-.03,3.13-.23,6.31-.12,9.45.02.66.1,2.85.39,3.3.12.19.39.26.54.44.1.11.77.91.7.98Z"/>
    <path class="cls-9" d="M476.35,245.76c.12.14.17.33.29.47s.63.3.45.58c-.94-.52-1.79-1.16-2.51-1.95-1.25-1.37-1.49-2.22-1.58-4.07-.21-4.05.05-8.23.12-12.28.03-1.77.02-3.08-1.31-4.4.08-.08,1.12.76,1.25.87,2.62,2.28,2.61,3.43,2.57,6.79-.04,3.68-.58,9.2,0,12.7.15.91.25.75.71,1.3Z"/>
    <path class="cls-9" d="M428.27,246.48c-.99-.33-1.88-1.18-2.56-1.95-1.05-1.2-1.37-1.9-1.47-3.53-.26-4.17.05-8.85.11-13.04.01-.72.02-1.42-.16-2.12-.21-.84-.79-1.45-1.37-2.06.83.39,1.71,1.16,2.34,1.84,2.11,2.26,1.61,3.31,1.57,6.14-.02,1.63.01,3.29,0,4.89s-.27,7.24.3,8.39c.09.18,1.29,1.38,1.22,1.44Z"/>
    <path class="cls-9" d="M422.79,245.65c.09.1.08.27.17.37.12.13.64.29.46.57-1.54-.81-3.7-2.74-3.95-4.54-.54-3.97-.08-9.25-.02-13.33.01-1.09.12-2.66-.4-3.63-.2-.38-.71-.78-.91-1.21.08-.08,1.12.76,1.25.87,2.75,2.39,2.61,3.62,2.57,7.12-.05,3.83-.48,8.62,0,12.37.13,1,.33.84.83,1.4Z"/>
  </g>
</svg>