<svg width="105" height="98" viewBox="0 0 105 98" fill="none" xmlns="http://www.w3.org/2000/svg">
<path d="M65.0174 77.2648C65.0174 84.5859 61.5 94.0546 51.7614 94.0546C40 94.0546 37.5586 84.5859 37.5586 77.2648" stroke="#E65800" stroke-width="6"/>
<path d="M86.6852 22.6364C86.882 22.6362 87.0701 22.5562 87.2633 22.5189C91.2308 21.7539 95.2822 21.5262 99.3047 21.839C101.064 21.9758 102.458 23.3604 102.597 25.1196C103.05 30.8399 102.339 36.6021 100.494 42.0674C98.33 48.4749 94.6672 54.2964 89.7985 59.0658C84.8643 63.9366 78.8084 67.5716 72.1415 69.6642C69.4211 70.517 66.6309 71.1089 63.81 71.436C60.2205 71.8522 58.7104 67.3372 61.0226 64.5602C63.9824 61.0056 66.3786 57.009 68.1105 52.7027C70.7695 46.0913 71.7764 38.9644 71.0644 31.9157C70.9087 30.3747 71.5449 28.8288 72.8726 28.0311C77.1169 25.481 81.7785 23.6552 86.659 22.6379C86.6677 22.6361 86.6764 22.6364 86.6852 22.6364ZM75.763 5.58401C77.3821 4.92689 79.2292 5.52547 80.1526 7.00899C82.2076 10.3105 83.8063 13.8637 84.9078 17.575C85.5277 19.664 84.1404 21.7397 82.06 22.3879C79.864 23.072 77.7255 23.9195 75.6629 24.9223C73.0992 26.1687 69.8484 24.8036 68.9301 22.1049C68.1801 19.9007 67.2544 17.7545 66.1602 15.6865C66.1286 15.627 66.0968 15.5675 66.0649 15.5081C65.1039 13.7181 65.4239 11.4474 67.0909 10.286C69.7916 8.40425 72.7007 6.82679 75.763 5.58401ZM49.7752 3.37177C51.11 2.2515 53.0454 2.24998 54.3812 3.36907C61.5636 9.38611 66.6115 17.5245 68.7394 26.604C71.0882 36.6256 69.7264 47.1401 64.8975 56.2671C62.2616 61.2133 58.6886 65.6104 54.3792 69.2272C53.0443 70.3474 51.1089 70.349 49.7731 69.2299C42.5908 63.2128 37.5429 55.0745 35.415 45.995C33.0662 35.9734 34.428 25.459 39.2568 16.332C41.8927 11.3857 45.4657 6.9886 49.7752 3.37177ZM24.0017 7.00912C24.9251 5.52553 26.7722 4.92692 28.3915 5.58408C31.4549 6.82738 34.365 8.40559 37.0666 10.2883C38.732 11.4489 39.0536 13.7174 38.0913 15.5047C38.0587 15.5652 38.0262 15.6258 37.9939 15.6865C36.8998 17.7545 35.9741 19.9008 35.2241 22.1051C34.3059 24.8037 31.0552 26.1688 28.4915 24.9225C26.4289 23.9198 24.2905 23.0725 22.0946 22.3884C20.0141 21.7403 18.6267 19.6646 19.2467 17.5755C20.3481 13.8641 21.9467 10.3107 24.0017 7.00912ZM3.47411 41.5024C1.78164 36.204 1.13653 30.6467 1.56307 25.1282C1.69936 23.3651 3.09426 21.9754 4.85739 21.8386C8.91864 21.5234 13.0094 21.7591 17.0134 22.5426C17.125 22.5644 17.2324 22.6059 17.3442 22.6266C17.3857 22.6339 17.4277 22.6376 17.4699 22.6376C17.4813 22.6376 17.4926 22.6372 17.5038 22.6395C22.3809 23.6572 27.0392 25.4822 31.2808 28.0306C32.609 28.8286 33.2451 30.3753 33.0888 31.9169C32.3743 38.9656 33.38 46.093 36.0391 52.7047C37.7705 57.0097 40.1663 61.0049 43.1256 64.558C45.4387 67.3353 43.9287 71.8521 40.3384 71.4353C37.5195 71.1081 34.7313 70.5164 32.0128 69.6642C25.346 67.5717 19.29 63.9367 14.3559 59.066C9.34723 54.1507 5.61531 48.1274 3.47411 41.5024ZM39.1814 78.648C39.0547 78.683 38.9398 78.7517 38.8181 78.8013C34.7298 80.4699 30.3414 81.3181 25.9121 81.295C16.3728 81.295 7.67098 77.4857 2.90013 71.4041C1.98894 70.2426 1.98924 68.619 2.90257 67.4592C5.35637 64.3431 8.90273 61.7588 13.1533 60.0135C13.2208 59.9858 13.2972 60.0024 13.3495 60.0533C18.4431 65.0814 24.6949 68.8337 31.5771 70.9939C36.1073 72.4165 40.8354 73.1395 45.592 73.1369C46.2462 73.1369 46.5798 73.9233 46.086 74.3524C44.036 76.1341 41.7056 77.5854 39.1814 78.648ZM78.2056 81.2952C73.7947 81.3181 69.4241 80.4772 65.3499 78.8226C65.2217 78.7705 65.101 78.6973 64.9673 78.6615C62.4425 77.6022 60.111 76.1542 58.0592 74.3757C57.5546 73.9383 57.8948 73.1363 58.5625 73.1373C63.3191 73.1395 68.0472 72.4164 72.5774 70.9939C79.4596 68.8338 85.7112 65.0815 90.8049 60.0535C90.8509 60.0087 90.9181 59.994 90.9775 60.0184C95.2225 61.763 98.7646 64.3456 101.216 67.4595C102.129 68.6193 102.129 70.2426 101.218 71.404C96.4472 77.4857 87.745 81.2952 78.2056 81.2952Z" fill="#E65800"/>
<path d="M51.7617 77.1424C54.4781 77.1425 56.6797 79.3449 56.6797 82.0613C56.6795 84.7776 54.478 86.9791 51.7617 86.9793C49.0453 86.9793 46.8429 84.7777 46.8428 82.0613C46.8428 79.3448 49.0452 77.1424 51.7617 77.1424Z" fill="#C90000" stroke="#FFD72E"/>
</svg>
