<svg width="222" height="208" viewBox="0 0 222 208" fill="none" xmlns="http://www.w3.org/2000/svg">
<path d="M138.845 165.5C138.845 181.134 131.334 201.355 110.537 201.355C85.4202 201.355 80.2065 181.134 80.2065 165.5" stroke="#E65800" stroke-width="12"/>
<path d="M184.765 48.8753C184.83 48.8753 184.895 48.871 184.959 48.8628C185.247 48.8256 185.522 48.7171 185.807 48.6614C195.426 46.7815 205.279 46.3883 215.011 47.4914C216.765 47.6902 218.147 49.0656 218.352 50.8185C219.905 64.1408 218.492 77.6488 214.197 90.4006C209.586 104.094 201.778 116.535 191.401 126.727C180.884 137.136 167.976 144.905 153.766 149.376C144.342 152.339 134.525 153.828 124.672 153.808C121.062 153.801 119.67 149.263 122.289 146.777C132.249 137.327 140.067 125.861 145.174 113.129C151.202 98.1017 153.247 81.8286 151.136 65.8358C150.934 64.3026 151.581 62.766 152.881 61.9277C162.569 55.6776 173.362 51.2501 184.71 48.8786C184.728 48.8747 184.747 48.8753 184.765 48.8753ZM164.58 11.2368C166.223 10.6342 168.061 11.2304 169.036 12.6836C175.127 21.7558 179.561 31.8019 182.14 42.3685C182.656 44.4838 181.284 46.5619 179.178 47.1159C170.802 49.3198 162.768 52.624 155.295 56.9367C152.823 58.363 149.59 57.0069 148.87 54.2456C147.044 47.2393 144.411 40.4541 141.017 34.0231C140.317 32.7011 139.585 31.3961 138.821 30.1082C137.787 28.3641 138.121 26.1038 139.732 24.8718C147.262 19.113 155.64 14.5149 164.58 11.2368ZM108.663 5.61954C110.037 4.54258 111.964 4.54142 113.34 5.61675C130.016 18.6488 141.729 36.8822 146.515 57.3543C151.521 78.7711 148.618 101.241 138.326 120.746C132.192 132.287 123.677 142.429 113.337 150.529C111.963 151.606 110.036 151.607 108.66 150.531C91.9843 137.499 80.2707 119.266 75.4853 98.7941C70.479 77.3774 73.3816 54.9073 83.674 35.4025C89.808 23.8615 98.323 13.7197 108.663 5.61954ZM52.9635 12.6838C53.9393 11.2304 55.7768 10.6342 57.4203 11.2369C66.3607 14.5155 74.7402 19.1144 82.2704 24.8743C83.8797 26.1053 84.2156 28.3632 83.1821 30.106C82.4182 31.3943 81.6849 32.7 80.9822 34.0231C77.5885 40.4542 74.9554 47.2395 73.1295 54.2458C72.4099 57.007 69.177 58.3631 66.7054 56.937C59.2319 52.6246 51.1986 49.3207 42.822 47.1171C40.7162 46.5631 39.3442 44.4851 39.8604 42.3697C42.4392 31.8028 46.8727 21.7563 52.9635 12.6838ZM7.40489 89.1931C3.45328 76.7898 2.18038 63.7225 3.65429 50.8276C3.85511 49.0706 5.23923 47.69 6.99643 47.491C16.7499 46.3861 26.6244 46.7839 36.2632 48.6748C36.5011 48.7215 36.73 48.8102 36.9683 48.8544C37.0567 48.87 37.1464 48.8779 37.2362 48.8779C37.2605 48.8779 37.2847 48.877 37.3085 48.882C48.6493 51.2546 59.435 55.6808 69.1181 61.9274C70.4182 62.7661 71.0652 64.3034 70.8623 65.8372C68.7458 81.8301 70.7874 98.1051 76.8157 113.133C81.9229 125.865 89.742 137.329 99.7039 146.776C102.324 149.261 100.933 153.801 97.3218 153.808C87.4708 153.827 77.656 152.338 68.2338 149.376C54.0237 144.905 41.1157 137.136 30.5989 126.728C19.9232 116.223 11.9688 103.351 7.40489 89.1931ZM83.4079 168.609C83.2132 168.678 83.0323 168.783 82.8411 168.861C74.098 172.455 64.7081 174.282 55.2304 174.232C33.772 174.232 14.3017 165.165 4.57041 150.892C3.74067 149.675 3.7411 148.08 4.57255 146.864C9.79938 139.221 17.9958 132.886 28.0354 128.752C28.1793 128.693 28.3424 128.729 28.4537 128.837C39.3107 139.583 52.6359 147.602 67.3051 152.218C76.961 155.258 87.0387 156.803 97.1772 156.798C98.5731 156.798 99.2861 158.475 98.2338 159.392C93.8633 163.201 88.8949 166.304 83.5132 168.575C83.4777 168.585 83.4426 168.596 83.4079 168.609ZM166.691 174.233C157.251 174.282 147.897 172.47 139.183 168.905C138.981 168.822 138.791 168.711 138.585 168.639C138.549 168.626 138.512 168.614 138.475 168.604C133.092 166.34 128.121 163.244 123.747 159.442C122.671 158.507 123.398 156.797 124.823 156.799C134.962 156.803 145.039 155.258 154.695 152.218C169.364 147.602 182.689 139.583 193.546 128.838C193.644 128.742 193.788 128.711 193.914 128.763C203.941 132.895 212.128 139.226 217.35 146.864C218.181 148.08 218.182 149.675 217.352 150.892C207.621 165.165 188.15 174.233 166.691 174.233Z" fill="#E65800"/>
<path d="M110.537 165.806C116.025 165.806 120.473 170.255 120.473 175.743C120.473 181.23 116.025 185.678 110.537 185.678C105.05 185.678 100.601 181.23 100.601 175.743C100.601 170.255 105.05 165.806 110.537 165.806Z" fill="#C90000" stroke="#FFD72E"/>
</svg>
